<?xml version="1.0" encoding="utf-8" standalone="no"?>
<!DOCTYPE svg PUBLIC "-//W3C//DTD SVG 1.1//EN"
  "http://www.w3.org/Graphics/SVG/1.1/DTD/svg11.dtd">
<!-- Created with matplotlib (https://matplotlib.org/) -->
<svg height="216pt" version="1.1" viewBox="0 0 864 216" width="864pt" xmlns="http://www.w3.org/2000/svg" xmlns:xlink="http://www.w3.org/1999/xlink">
 <metadata>
  <rdf:RDF xmlns:cc="http://creativecommons.org/ns#" xmlns:dc="http://purl.org/dc/elements/1.1/" xmlns:rdf="http://www.w3.org/1999/02/22-rdf-syntax-ns#">
   <cc:Work>
    <dc:type rdf:resource="http://purl.org/dc/dcmitype/StillImage"/>
    <dc:date>2022-03-15T15:06:32.622054</dc:date>
    <dc:format>image/svg+xml</dc:format>
    <dc:creator>
     <cc:Agent>
      <dc:title>Matplotlib v3.3.1, https://matplotlib.org/</dc:title>
     </cc:Agent>
    </dc:creator>
   </cc:Work>
  </rdf:RDF>
 </metadata>
 <defs>
  <style type="text/css">*{stroke-linecap:butt;stroke-linejoin:round;}</style>
 </defs>
 <g id="figure_1">
  <g id="patch_1">
   <path d="M 0 216 
L 864 216 
L 864 0 
L 0 0 
z
" style="fill:none;"/>
  </g>
  <g id="axes_1">
   <g id="patch_2">
    <path d="M 108 189 
L 304.941176 189 
L 304.941176 25.92 
L 108 25.92 
z
" style="fill:#ffffff;"/>
   </g>
   <g id="matplotlib.axis_1">
    <g id="xtick_1">
     <g id="line2d_1">
      <path clip-path="url(#p21b379b0b2)" d="M 131.16955 189 
L 131.16955 25.92 
" style="fill:none;stroke:#b0b0b0;stroke-linecap:square;stroke-width:0.8;"/>
     </g>
     <g id="line2d_2">
      <defs>
       <path d="M 0 0 
L 0 3.5 
" id="m9d50de3c9e" style="stroke:#000000;stroke-width:0.8;"/>
      </defs>
      <g>
       <use style="stroke:#000000;stroke-width:0.8;" x="131.16955" xlink:href="#m9d50de3c9e" y="189"/>
      </g>
     </g>
     <g id="text_1">
      <!-- 20 -->
      <g transform="translate(124.80705 203.598437)scale(0.1 -0.1)">
       <defs>
        <path d="M 19.1875 8.296875 
L 53.609375 8.296875 
L 53.609375 0 
L 7.328125 0 
L 7.328125 8.296875 
Q 12.9375 14.109375 22.625 23.890625 
Q 32.328125 33.6875 34.8125 36.53125 
Q 39.546875 41.84375 41.421875 45.53125 
Q 43.3125 49.21875 43.3125 52.78125 
Q 43.3125 58.59375 39.234375 62.25 
Q 35.15625 65.921875 28.609375 65.921875 
Q 23.96875 65.921875 18.8125 64.3125 
Q 13.671875 62.703125 7.8125 59.421875 
L 7.8125 69.390625 
Q 13.765625 71.78125 18.9375 73 
Q 24.125 74.21875 28.421875 74.21875 
Q 39.75 74.21875 46.484375 68.546875 
Q 53.21875 62.890625 53.21875 53.421875 
Q 53.21875 48.921875 51.53125 44.890625 
Q 49.859375 40.875 45.40625 35.40625 
Q 44.1875 33.984375 37.640625 27.21875 
Q 31.109375 20.453125 19.1875 8.296875 
z
" id="DejaVuSans-50"/>
        <path d="M 31.78125 66.40625 
Q 24.171875 66.40625 20.328125 58.90625 
Q 16.5 51.421875 16.5 36.375 
Q 16.5 21.390625 20.328125 13.890625 
Q 24.171875 6.390625 31.78125 6.390625 
Q 39.453125 6.390625 43.28125 13.890625 
Q 47.125 21.390625 47.125 36.375 
Q 47.125 51.421875 43.28125 58.90625 
Q 39.453125 66.40625 31.78125 66.40625 
z
M 31.78125 74.21875 
Q 44.046875 74.21875 50.515625 64.515625 
Q 56.984375 54.828125 56.984375 36.375 
Q 56.984375 17.96875 50.515625 8.265625 
Q 44.046875 -1.421875 31.78125 -1.421875 
Q 19.53125 -1.421875 13.0625 8.265625 
Q 6.59375 17.96875 6.59375 36.375 
Q 6.59375 54.828125 13.0625 64.515625 
Q 19.53125 74.21875 31.78125 74.21875 
z
" id="DejaVuSans-48"/>
       </defs>
       <use xlink:href="#DejaVuSans-50"/>
       <use x="63.623047" xlink:href="#DejaVuSans-48"/>
      </g>
     </g>
    </g>
    <g id="xtick_2">
     <g id="line2d_3">
      <path clip-path="url(#p21b379b0b2)" d="M 177.508651 189 
L 177.508651 25.92 
" style="fill:none;stroke:#b0b0b0;stroke-linecap:square;stroke-width:0.8;"/>
     </g>
     <g id="line2d_4">
      <g>
       <use style="stroke:#000000;stroke-width:0.8;" x="177.508651" xlink:href="#m9d50de3c9e" y="189"/>
      </g>
     </g>
     <g id="text_2">
      <!-- 40 -->
      <g transform="translate(171.146151 203.598437)scale(0.1 -0.1)">
       <defs>
        <path d="M 37.796875 64.3125 
L 12.890625 25.390625 
L 37.796875 25.390625 
z
M 35.203125 72.90625 
L 47.609375 72.90625 
L 47.609375 25.390625 
L 58.015625 25.390625 
L 58.015625 17.1875 
L 47.609375 17.1875 
L 47.609375 0 
L 37.796875 0 
L 37.796875 17.1875 
L 4.890625 17.1875 
L 4.890625 26.703125 
z
" id="DejaVuSans-52"/>
       </defs>
       <use xlink:href="#DejaVuSans-52"/>
       <use x="63.623047" xlink:href="#DejaVuSans-48"/>
      </g>
     </g>
    </g>
    <g id="xtick_3">
     <g id="line2d_5">
      <path clip-path="url(#p21b379b0b2)" d="M 223.847751 189 
L 223.847751 25.92 
" style="fill:none;stroke:#b0b0b0;stroke-linecap:square;stroke-width:0.8;"/>
     </g>
     <g id="line2d_6">
      <g>
       <use style="stroke:#000000;stroke-width:0.8;" x="223.847751" xlink:href="#m9d50de3c9e" y="189"/>
      </g>
     </g>
     <g id="text_3">
      <!-- 60 -->
      <g transform="translate(217.485251 203.598437)scale(0.1 -0.1)">
       <defs>
        <path d="M 33.015625 40.375 
Q 26.375 40.375 22.484375 35.828125 
Q 18.609375 31.296875 18.609375 23.390625 
Q 18.609375 15.53125 22.484375 10.953125 
Q 26.375 6.390625 33.015625 6.390625 
Q 39.65625 6.390625 43.53125 10.953125 
Q 47.40625 15.53125 47.40625 23.390625 
Q 47.40625 31.296875 43.53125 35.828125 
Q 39.65625 40.375 33.015625 40.375 
z
M 52.59375 71.296875 
L 52.59375 62.3125 
Q 48.875 64.0625 45.09375 64.984375 
Q 41.3125 65.921875 37.59375 65.921875 
Q 27.828125 65.921875 22.671875 59.328125 
Q 17.53125 52.734375 16.796875 39.40625 
Q 19.671875 43.65625 24.015625 45.921875 
Q 28.375 48.1875 33.59375 48.1875 
Q 44.578125 48.1875 50.953125 41.515625 
Q 57.328125 34.859375 57.328125 23.390625 
Q 57.328125 12.15625 50.6875 5.359375 
Q 44.046875 -1.421875 33.015625 -1.421875 
Q 20.359375 -1.421875 13.671875 8.265625 
Q 6.984375 17.96875 6.984375 36.375 
Q 6.984375 53.65625 15.1875 63.9375 
Q 23.390625 74.21875 37.203125 74.21875 
Q 40.921875 74.21875 44.703125 73.484375 
Q 48.484375 72.75 52.59375 71.296875 
z
" id="DejaVuSans-54"/>
       </defs>
       <use xlink:href="#DejaVuSans-54"/>
       <use x="63.623047" xlink:href="#DejaVuSans-48"/>
      </g>
     </g>
    </g>
    <g id="xtick_4">
     <g id="line2d_7">
      <path clip-path="url(#p21b379b0b2)" d="M 270.186851 189 
L 270.186851 25.92 
" style="fill:none;stroke:#b0b0b0;stroke-linecap:square;stroke-width:0.8;"/>
     </g>
     <g id="line2d_8">
      <g>
       <use style="stroke:#000000;stroke-width:0.8;" x="270.186851" xlink:href="#m9d50de3c9e" y="189"/>
      </g>
     </g>
     <g id="text_4">
      <!-- 80 -->
      <g transform="translate(263.824351 203.598437)scale(0.1 -0.1)">
       <defs>
        <path d="M 31.78125 34.625 
Q 24.75 34.625 20.71875 30.859375 
Q 16.703125 27.09375 16.703125 20.515625 
Q 16.703125 13.921875 20.71875 10.15625 
Q 24.75 6.390625 31.78125 6.390625 
Q 38.8125 6.390625 42.859375 10.171875 
Q 46.921875 13.96875 46.921875 20.515625 
Q 46.921875 27.09375 42.890625 30.859375 
Q 38.875 34.625 31.78125 34.625 
z
M 21.921875 38.8125 
Q 15.578125 40.375 12.03125 44.71875 
Q 8.5 49.078125 8.5 55.328125 
Q 8.5 64.0625 14.71875 69.140625 
Q 20.953125 74.21875 31.78125 74.21875 
Q 42.671875 74.21875 48.875 69.140625 
Q 55.078125 64.0625 55.078125 55.328125 
Q 55.078125 49.078125 51.53125 44.71875 
Q 48 40.375 41.703125 38.8125 
Q 48.828125 37.15625 52.796875 32.3125 
Q 56.78125 27.484375 56.78125 20.515625 
Q 56.78125 9.90625 50.3125 4.234375 
Q 43.84375 -1.421875 31.78125 -1.421875 
Q 19.734375 -1.421875 13.25 4.234375 
Q 6.78125 9.90625 6.78125 20.515625 
Q 6.78125 27.484375 10.78125 32.3125 
Q 14.796875 37.15625 21.921875 38.8125 
z
M 18.3125 54.390625 
Q 18.3125 48.734375 21.84375 45.5625 
Q 25.390625 42.390625 31.78125 42.390625 
Q 38.140625 42.390625 41.71875 45.5625 
Q 45.3125 48.734375 45.3125 54.390625 
Q 45.3125 60.0625 41.71875 63.234375 
Q 38.140625 66.40625 31.78125 66.40625 
Q 25.390625 66.40625 21.84375 63.234375 
Q 18.3125 60.0625 18.3125 54.390625 
z
" id="DejaVuSans-56"/>
       </defs>
       <use xlink:href="#DejaVuSans-56"/>
       <use x="63.623047" xlink:href="#DejaVuSans-48"/>
      </g>
     </g>
    </g>
    <g id="text_5">
     <!-- Speaker Age [years] -->
     <g transform="translate(155.624494 217.276563)scale(0.1 -0.1)">
      <defs>
       <path d="M 53.515625 70.515625 
L 53.515625 60.890625 
Q 47.90625 63.578125 42.921875 64.890625 
Q 37.9375 66.21875 33.296875 66.21875 
Q 25.25 66.21875 20.875 63.09375 
Q 16.5 59.96875 16.5 54.203125 
Q 16.5 49.359375 19.40625 46.890625 
Q 22.3125 44.4375 30.421875 42.921875 
L 36.375 41.703125 
Q 47.40625 39.59375 52.65625 34.296875 
Q 57.90625 29 57.90625 20.125 
Q 57.90625 9.515625 50.796875 4.046875 
Q 43.703125 -1.421875 29.984375 -1.421875 
Q 24.8125 -1.421875 18.96875 -0.25 
Q 13.140625 0.921875 6.890625 3.21875 
L 6.890625 13.375 
Q 12.890625 10.015625 18.65625 8.296875 
Q 24.421875 6.59375 29.984375 6.59375 
Q 38.421875 6.59375 43.015625 9.90625 
Q 47.609375 13.234375 47.609375 19.390625 
Q 47.609375 24.75 44.3125 27.78125 
Q 41.015625 30.8125 33.5 32.328125 
L 27.484375 33.5 
Q 16.453125 35.6875 11.515625 40.375 
Q 6.59375 45.0625 6.59375 53.421875 
Q 6.59375 63.09375 13.40625 68.65625 
Q 20.21875 74.21875 32.171875 74.21875 
Q 37.3125 74.21875 42.625 73.28125 
Q 47.953125 72.359375 53.515625 70.515625 
z
" id="DejaVuSans-83"/>
       <path d="M 18.109375 8.203125 
L 18.109375 -20.796875 
L 9.078125 -20.796875 
L 9.078125 54.6875 
L 18.109375 54.6875 
L 18.109375 46.390625 
Q 20.953125 51.265625 25.265625 53.625 
Q 29.59375 56 35.59375 56 
Q 45.5625 56 51.78125 48.09375 
Q 58.015625 40.1875 58.015625 27.296875 
Q 58.015625 14.40625 51.78125 6.484375 
Q 45.5625 -1.421875 35.59375 -1.421875 
Q 29.59375 -1.421875 25.265625 0.953125 
Q 20.953125 3.328125 18.109375 8.203125 
z
M 48.6875 27.296875 
Q 48.6875 37.203125 44.609375 42.84375 
Q 40.53125 48.484375 33.40625 48.484375 
Q 26.265625 48.484375 22.1875 42.84375 
Q 18.109375 37.203125 18.109375 27.296875 
Q 18.109375 17.390625 22.1875 11.75 
Q 26.265625 6.109375 33.40625 6.109375 
Q 40.53125 6.109375 44.609375 11.75 
Q 48.6875 17.390625 48.6875 27.296875 
z
" id="DejaVuSans-112"/>
       <path d="M 56.203125 29.59375 
L 56.203125 25.203125 
L 14.890625 25.203125 
Q 15.484375 15.921875 20.484375 11.0625 
Q 25.484375 6.203125 34.421875 6.203125 
Q 39.59375 6.203125 44.453125 7.46875 
Q 49.3125 8.734375 54.109375 11.28125 
L 54.109375 2.78125 
Q 49.265625 0.734375 44.1875 -0.34375 
Q 39.109375 -1.421875 33.890625 -1.421875 
Q 20.796875 -1.421875 13.15625 6.1875 
Q 5.515625 13.8125 5.515625 26.8125 
Q 5.515625 40.234375 12.765625 48.109375 
Q 20.015625 56 32.328125 56 
Q 43.359375 56 49.78125 48.890625 
Q 56.203125 41.796875 56.203125 29.59375 
z
M 47.21875 32.234375 
Q 47.125 39.59375 43.09375 43.984375 
Q 39.0625 48.390625 32.421875 48.390625 
Q 24.90625 48.390625 20.390625 44.140625 
Q 15.875 39.890625 15.1875 32.171875 
z
" id="DejaVuSans-101"/>
       <path d="M 34.28125 27.484375 
Q 23.390625 27.484375 19.1875 25 
Q 14.984375 22.515625 14.984375 16.5 
Q 14.984375 11.71875 18.140625 8.90625 
Q 21.296875 6.109375 26.703125 6.109375 
Q 34.1875 6.109375 38.703125 11.40625 
Q 43.21875 16.703125 43.21875 25.484375 
L 43.21875 27.484375 
z
M 52.203125 31.203125 
L 52.203125 0 
L 43.21875 0 
L 43.21875 8.296875 
Q 40.140625 3.328125 35.546875 0.953125 
Q 30.953125 -1.421875 24.3125 -1.421875 
Q 15.921875 -1.421875 10.953125 3.296875 
Q 6 8.015625 6 15.921875 
Q 6 25.140625 12.171875 29.828125 
Q 18.359375 34.515625 30.609375 34.515625 
L 43.21875 34.515625 
L 43.21875 35.40625 
Q 43.21875 41.609375 39.140625 45 
Q 35.0625 48.390625 27.6875 48.390625 
Q 23 48.390625 18.546875 47.265625 
Q 14.109375 46.140625 10.015625 43.890625 
L 10.015625 52.203125 
Q 14.9375 54.109375 19.578125 55.046875 
Q 24.21875 56 28.609375 56 
Q 40.484375 56 46.34375 49.84375 
Q 52.203125 43.703125 52.203125 31.203125 
z
" id="DejaVuSans-97"/>
       <path d="M 9.078125 75.984375 
L 18.109375 75.984375 
L 18.109375 31.109375 
L 44.921875 54.6875 
L 56.390625 54.6875 
L 27.390625 29.109375 
L 57.625 0 
L 45.90625 0 
L 18.109375 26.703125 
L 18.109375 0 
L 9.078125 0 
z
" id="DejaVuSans-107"/>
       <path d="M 41.109375 46.296875 
Q 39.59375 47.171875 37.8125 47.578125 
Q 36.03125 48 33.890625 48 
Q 26.265625 48 22.1875 43.046875 
Q 18.109375 38.09375 18.109375 28.8125 
L 18.109375 0 
L 9.078125 0 
L 9.078125 54.6875 
L 18.109375 54.6875 
L 18.109375 46.1875 
Q 20.953125 51.171875 25.484375 53.578125 
Q 30.03125 56 36.53125 56 
Q 37.453125 56 38.578125 55.875 
Q 39.703125 55.765625 41.0625 55.515625 
z
" id="DejaVuSans-114"/>
       <path id="DejaVuSans-32"/>
       <path d="M 34.1875 63.1875 
L 20.796875 26.90625 
L 47.609375 26.90625 
z
M 28.609375 72.90625 
L 39.796875 72.90625 
L 67.578125 0 
L 57.328125 0 
L 50.6875 18.703125 
L 17.828125 18.703125 
L 11.1875 0 
L 0.78125 0 
z
" id="DejaVuSans-65"/>
       <path d="M 45.40625 27.984375 
Q 45.40625 37.75 41.375 43.109375 
Q 37.359375 48.484375 30.078125 48.484375 
Q 22.859375 48.484375 18.828125 43.109375 
Q 14.796875 37.75 14.796875 27.984375 
Q 14.796875 18.265625 18.828125 12.890625 
Q 22.859375 7.515625 30.078125 7.515625 
Q 37.359375 7.515625 41.375 12.890625 
Q 45.40625 18.265625 45.40625 27.984375 
z
M 54.390625 6.78125 
Q 54.390625 -7.171875 48.1875 -13.984375 
Q 42 -20.796875 29.203125 -20.796875 
Q 24.46875 -20.796875 20.265625 -20.09375 
Q 16.0625 -19.390625 12.109375 -17.921875 
L 12.109375 -9.1875 
Q 16.0625 -11.328125 19.921875 -12.34375 
Q 23.78125 -13.375 27.78125 -13.375 
Q 36.625 -13.375 41.015625 -8.765625 
Q 45.40625 -4.15625 45.40625 5.171875 
L 45.40625 9.625 
Q 42.625 4.78125 38.28125 2.390625 
Q 33.9375 0 27.875 0 
Q 17.828125 0 11.671875 7.65625 
Q 5.515625 15.328125 5.515625 27.984375 
Q 5.515625 40.671875 11.671875 48.328125 
Q 17.828125 56 27.875 56 
Q 33.9375 56 38.28125 53.609375 
Q 42.625 51.21875 45.40625 46.390625 
L 45.40625 54.6875 
L 54.390625 54.6875 
z
" id="DejaVuSans-103"/>
       <path d="M 8.59375 75.984375 
L 29.296875 75.984375 
L 29.296875 69 
L 17.578125 69 
L 17.578125 -6.203125 
L 29.296875 -6.203125 
L 29.296875 -13.1875 
L 8.59375 -13.1875 
z
" id="DejaVuSans-91"/>
       <path d="M 32.171875 -5.078125 
Q 28.375 -14.84375 24.75 -17.8125 
Q 21.140625 -20.796875 15.09375 -20.796875 
L 7.90625 -20.796875 
L 7.90625 -13.28125 
L 13.1875 -13.28125 
Q 16.890625 -13.28125 18.9375 -11.515625 
Q 21 -9.765625 23.484375 -3.21875 
L 25.09375 0.875 
L 2.984375 54.6875 
L 12.5 54.6875 
L 29.59375 11.921875 
L 46.6875 54.6875 
L 56.203125 54.6875 
z
" id="DejaVuSans-121"/>
       <path d="M 44.28125 53.078125 
L 44.28125 44.578125 
Q 40.484375 46.53125 36.375 47.5 
Q 32.28125 48.484375 27.875 48.484375 
Q 21.1875 48.484375 17.84375 46.4375 
Q 14.5 44.390625 14.5 40.28125 
Q 14.5 37.15625 16.890625 35.375 
Q 19.28125 33.59375 26.515625 31.984375 
L 29.59375 31.296875 
Q 39.15625 29.25 43.1875 25.515625 
Q 47.21875 21.78125 47.21875 15.09375 
Q 47.21875 7.46875 41.1875 3.015625 
Q 35.15625 -1.421875 24.609375 -1.421875 
Q 20.21875 -1.421875 15.453125 -0.5625 
Q 10.6875 0.296875 5.421875 2 
L 5.421875 11.28125 
Q 10.40625 8.6875 15.234375 7.390625 
Q 20.0625 6.109375 24.8125 6.109375 
Q 31.15625 6.109375 34.5625 8.28125 
Q 37.984375 10.453125 37.984375 14.40625 
Q 37.984375 18.0625 35.515625 20.015625 
Q 33.0625 21.96875 24.703125 23.78125 
L 21.578125 24.515625 
Q 13.234375 26.265625 9.515625 29.90625 
Q 5.8125 33.546875 5.8125 39.890625 
Q 5.8125 47.609375 11.28125 51.796875 
Q 16.75 56 26.8125 56 
Q 31.78125 56 36.171875 55.265625 
Q 40.578125 54.546875 44.28125 53.078125 
z
" id="DejaVuSans-115"/>
       <path d="M 30.421875 75.984375 
L 30.421875 -13.1875 
L 9.71875 -13.1875 
L 9.71875 -6.203125 
L 21.390625 -6.203125 
L 21.390625 69 
L 9.71875 69 
L 9.71875 75.984375 
z
" id="DejaVuSans-93"/>
      </defs>
      <use xlink:href="#DejaVuSans-83"/>
      <use x="63.476562" xlink:href="#DejaVuSans-112"/>
      <use x="126.953125" xlink:href="#DejaVuSans-101"/>
      <use x="188.476562" xlink:href="#DejaVuSans-97"/>
      <use x="249.755859" xlink:href="#DejaVuSans-107"/>
      <use x="304.041016" xlink:href="#DejaVuSans-101"/>
      <use x="365.564453" xlink:href="#DejaVuSans-114"/>
      <use x="406.677734" xlink:href="#DejaVuSans-32"/>
      <use x="438.464844" xlink:href="#DejaVuSans-65"/>
      <use x="506.873047" xlink:href="#DejaVuSans-103"/>
      <use x="570.349609" xlink:href="#DejaVuSans-101"/>
      <use x="631.873047" xlink:href="#DejaVuSans-32"/>
      <use x="663.660156" xlink:href="#DejaVuSans-91"/>
      <use x="702.673828" xlink:href="#DejaVuSans-121"/>
      <use x="761.853516" xlink:href="#DejaVuSans-101"/>
      <use x="823.376953" xlink:href="#DejaVuSans-97"/>
      <use x="884.65625" xlink:href="#DejaVuSans-114"/>
      <use x="925.769531" xlink:href="#DejaVuSans-115"/>
      <use x="977.869141" xlink:href="#DejaVuSans-93"/>
     </g>
    </g>
   </g>
   <g id="matplotlib.axis_2">
    <g id="ytick_1">
     <g id="line2d_9">
      <path clip-path="url(#p21b379b0b2)" d="M 108 189 
L 304.941176 189 
" style="fill:none;stroke:#b0b0b0;stroke-linecap:square;stroke-width:0.8;"/>
     </g>
     <g id="line2d_10">
      <defs>
       <path d="M 0 0 
L -3.5 0 
" id="m048f2a23a9" style="stroke:#000000;stroke-width:0.8;"/>
      </defs>
      <g>
       <use style="stroke:#000000;stroke-width:0.8;" x="108" xlink:href="#m048f2a23a9" y="189"/>
      </g>
     </g>
     <g id="text_6">
      <!-- $\mathdefault{10^{0}}$ -->
      <g transform="translate(83.4 192.799219)scale(0.1 -0.1)">
       <defs>
        <path d="M 12.40625 8.296875 
L 28.515625 8.296875 
L 28.515625 63.921875 
L 10.984375 60.40625 
L 10.984375 69.390625 
L 28.421875 72.90625 
L 38.28125 72.90625 
L 38.28125 8.296875 
L 54.390625 8.296875 
L 54.390625 0 
L 12.40625 0 
z
" id="DejaVuSans-49"/>
       </defs>
       <use transform="translate(0 0.765625)" xlink:href="#DejaVuSans-49"/>
       <use transform="translate(63.623047 0.765625)" xlink:href="#DejaVuSans-48"/>
       <use transform="translate(128.203125 39.046875)scale(0.7)" xlink:href="#DejaVuSans-48"/>
      </g>
     </g>
    </g>
    <g id="ytick_2">
     <g id="line2d_11">
      <path clip-path="url(#p21b379b0b2)" d="M 108 132.045193 
L 304.941176 132.045193 
" style="fill:none;stroke:#b0b0b0;stroke-linecap:square;stroke-width:0.8;"/>
     </g>
     <g id="line2d_12">
      <g>
       <use style="stroke:#000000;stroke-width:0.8;" x="108" xlink:href="#m048f2a23a9" y="132.045193"/>
      </g>
     </g>
     <g id="text_7">
      <!-- $\mathdefault{10^{1}}$ -->
      <g transform="translate(83.4 135.844412)scale(0.1 -0.1)">
       <use transform="translate(0 0.684375)" xlink:href="#DejaVuSans-49"/>
       <use transform="translate(63.623047 0.684375)" xlink:href="#DejaVuSans-48"/>
       <use transform="translate(128.203125 38.965625)scale(0.7)" xlink:href="#DejaVuSans-49"/>
      </g>
     </g>
    </g>
    <g id="ytick_3">
     <g id="line2d_13">
      <path clip-path="url(#p21b379b0b2)" d="M 108 75.090387 
L 304.941176 75.090387 
" style="fill:none;stroke:#b0b0b0;stroke-linecap:square;stroke-width:0.8;"/>
     </g>
     <g id="line2d_14">
      <g>
       <use style="stroke:#000000;stroke-width:0.8;" x="108" xlink:href="#m048f2a23a9" y="75.090387"/>
      </g>
     </g>
     <g id="text_8">
      <!-- $\mathdefault{10^{2}}$ -->
      <g transform="translate(83.4 78.889605)scale(0.1 -0.1)">
       <use transform="translate(0 0.765625)" xlink:href="#DejaVuSans-49"/>
       <use transform="translate(63.623047 0.765625)" xlink:href="#DejaVuSans-48"/>
       <use transform="translate(128.203125 39.046875)scale(0.7)" xlink:href="#DejaVuSans-50"/>
      </g>
     </g>
    </g>
    <g id="ytick_4">
     <g id="line2d_15">
      <defs>
       <path d="M 0 0 
L -2 0 
" id="m4122e19cab" style="stroke:#000000;stroke-width:0.6;"/>
      </defs>
      <g>
       <use style="stroke:#000000;stroke-width:0.6;" x="108" xlink:href="#m4122e19cab" y="171.854895"/>
      </g>
     </g>
    </g>
    <g id="ytick_5">
     <g id="line2d_16">
      <g>
       <use style="stroke:#000000;stroke-width:0.6;" x="108" xlink:href="#m4122e19cab" y="161.825651"/>
      </g>
     </g>
    </g>
    <g id="ytick_6">
     <g id="line2d_17">
      <g>
       <use style="stroke:#000000;stroke-width:0.6;" x="108" xlink:href="#m4122e19cab" y="154.70979"/>
      </g>
     </g>
    </g>
    <g id="ytick_7">
     <g id="line2d_18">
      <g>
       <use style="stroke:#000000;stroke-width:0.6;" x="108" xlink:href="#m4122e19cab" y="149.190299"/>
      </g>
     </g>
    </g>
    <g id="ytick_8">
     <g id="line2d_19">
      <g>
       <use style="stroke:#000000;stroke-width:0.6;" x="108" xlink:href="#m4122e19cab" y="144.680546"/>
      </g>
     </g>
    </g>
    <g id="ytick_9">
     <g id="line2d_20">
      <g>
       <use style="stroke:#000000;stroke-width:0.6;" x="108" xlink:href="#m4122e19cab" y="140.867604"/>
      </g>
     </g>
    </g>
    <g id="ytick_10">
     <g id="line2d_21">
      <g>
       <use style="stroke:#000000;stroke-width:0.6;" x="108" xlink:href="#m4122e19cab" y="137.564684"/>
      </g>
     </g>
    </g>
    <g id="ytick_11">
     <g id="line2d_22">
      <g>
       <use style="stroke:#000000;stroke-width:0.6;" x="108" xlink:href="#m4122e19cab" y="134.651302"/>
      </g>
     </g>
    </g>
    <g id="ytick_12">
     <g id="line2d_23">
      <g>
       <use style="stroke:#000000;stroke-width:0.6;" x="108" xlink:href="#m4122e19cab" y="114.900088"/>
      </g>
     </g>
    </g>
    <g id="ytick_13">
     <g id="line2d_24">
      <g>
       <use style="stroke:#000000;stroke-width:0.6;" x="108" xlink:href="#m4122e19cab" y="104.870844"/>
      </g>
     </g>
    </g>
    <g id="ytick_14">
     <g id="line2d_25">
      <g>
       <use style="stroke:#000000;stroke-width:0.6;" x="108" xlink:href="#m4122e19cab" y="97.754983"/>
      </g>
     </g>
    </g>
    <g id="ytick_15">
     <g id="line2d_26">
      <g>
       <use style="stroke:#000000;stroke-width:0.6;" x="108" xlink:href="#m4122e19cab" y="92.235492"/>
      </g>
     </g>
    </g>
    <g id="ytick_16">
     <g id="line2d_27">
      <g>
       <use style="stroke:#000000;stroke-width:0.6;" x="108" xlink:href="#m4122e19cab" y="87.725739"/>
      </g>
     </g>
    </g>
    <g id="ytick_17">
     <g id="line2d_28">
      <g>
       <use style="stroke:#000000;stroke-width:0.6;" x="108" xlink:href="#m4122e19cab" y="83.912798"/>
      </g>
     </g>
    </g>
    <g id="ytick_18">
     <g id="line2d_29">
      <g>
       <use style="stroke:#000000;stroke-width:0.6;" x="108" xlink:href="#m4122e19cab" y="80.609878"/>
      </g>
     </g>
    </g>
    <g id="ytick_19">
     <g id="line2d_30">
      <g>
       <use style="stroke:#000000;stroke-width:0.6;" x="108" xlink:href="#m4122e19cab" y="77.696496"/>
      </g>
     </g>
    </g>
    <g id="ytick_20">
     <g id="line2d_31">
      <g>
       <use style="stroke:#000000;stroke-width:0.6;" x="108" xlink:href="#m4122e19cab" y="57.945281"/>
      </g>
     </g>
    </g>
    <g id="ytick_21">
     <g id="line2d_32">
      <g>
       <use style="stroke:#000000;stroke-width:0.6;" x="108" xlink:href="#m4122e19cab" y="47.916038"/>
      </g>
     </g>
    </g>
    <g id="ytick_22">
     <g id="line2d_33">
      <g>
       <use style="stroke:#000000;stroke-width:0.6;" x="108" xlink:href="#m4122e19cab" y="40.800176"/>
      </g>
     </g>
    </g>
    <g id="ytick_23">
     <g id="line2d_34">
      <g>
       <use style="stroke:#000000;stroke-width:0.6;" x="108" xlink:href="#m4122e19cab" y="35.280685"/>
      </g>
     </g>
    </g>
    <g id="ytick_24">
     <g id="line2d_35">
      <g>
       <use style="stroke:#000000;stroke-width:0.6;" x="108" xlink:href="#m4122e19cab" y="30.770933"/>
      </g>
     </g>
    </g>
    <g id="ytick_25">
     <g id="line2d_36">
      <g>
       <use style="stroke:#000000;stroke-width:0.6;" x="108" xlink:href="#m4122e19cab" y="26.957991"/>
      </g>
     </g>
    </g>
    <g id="text_9">
     <!-- log Count -->
     <g transform="translate(77.320312 131.520156)rotate(-90)scale(0.1 -0.1)">
      <defs>
       <path d="M 9.421875 75.984375 
L 18.40625 75.984375 
L 18.40625 0 
L 9.421875 0 
z
" id="DejaVuSans-108"/>
       <path d="M 30.609375 48.390625 
Q 23.390625 48.390625 19.1875 42.75 
Q 14.984375 37.109375 14.984375 27.296875 
Q 14.984375 17.484375 19.15625 11.84375 
Q 23.34375 6.203125 30.609375 6.203125 
Q 37.796875 6.203125 41.984375 11.859375 
Q 46.1875 17.53125 46.1875 27.296875 
Q 46.1875 37.015625 41.984375 42.703125 
Q 37.796875 48.390625 30.609375 48.390625 
z
M 30.609375 56 
Q 42.328125 56 49.015625 48.375 
Q 55.71875 40.765625 55.71875 27.296875 
Q 55.71875 13.875 49.015625 6.21875 
Q 42.328125 -1.421875 30.609375 -1.421875 
Q 18.84375 -1.421875 12.171875 6.21875 
Q 5.515625 13.875 5.515625 27.296875 
Q 5.515625 40.765625 12.171875 48.375 
Q 18.84375 56 30.609375 56 
z
" id="DejaVuSans-111"/>
       <path d="M 64.40625 67.28125 
L 64.40625 56.890625 
Q 59.421875 61.53125 53.78125 63.8125 
Q 48.140625 66.109375 41.796875 66.109375 
Q 29.296875 66.109375 22.65625 58.46875 
Q 16.015625 50.828125 16.015625 36.375 
Q 16.015625 21.96875 22.65625 14.328125 
Q 29.296875 6.6875 41.796875 6.6875 
Q 48.140625 6.6875 53.78125 8.984375 
Q 59.421875 11.28125 64.40625 15.921875 
L 64.40625 5.609375 
Q 59.234375 2.09375 53.4375 0.328125 
Q 47.65625 -1.421875 41.21875 -1.421875 
Q 24.65625 -1.421875 15.125 8.703125 
Q 5.609375 18.84375 5.609375 36.375 
Q 5.609375 53.953125 15.125 64.078125 
Q 24.65625 74.21875 41.21875 74.21875 
Q 47.75 74.21875 53.53125 72.484375 
Q 59.328125 70.75 64.40625 67.28125 
z
" id="DejaVuSans-67"/>
       <path d="M 8.5 21.578125 
L 8.5 54.6875 
L 17.484375 54.6875 
L 17.484375 21.921875 
Q 17.484375 14.15625 20.5 10.265625 
Q 23.53125 6.390625 29.59375 6.390625 
Q 36.859375 6.390625 41.078125 11.03125 
Q 45.3125 15.671875 45.3125 23.6875 
L 45.3125 54.6875 
L 54.296875 54.6875 
L 54.296875 0 
L 45.3125 0 
L 45.3125 8.40625 
Q 42.046875 3.421875 37.71875 1 
Q 33.40625 -1.421875 27.6875 -1.421875 
Q 18.265625 -1.421875 13.375 4.4375 
Q 8.5 10.296875 8.5 21.578125 
z
M 31.109375 56 
z
" id="DejaVuSans-117"/>
       <path d="M 54.890625 33.015625 
L 54.890625 0 
L 45.90625 0 
L 45.90625 32.71875 
Q 45.90625 40.484375 42.875 44.328125 
Q 39.84375 48.1875 33.796875 48.1875 
Q 26.515625 48.1875 22.3125 43.546875 
Q 18.109375 38.921875 18.109375 30.90625 
L 18.109375 0 
L 9.078125 0 
L 9.078125 54.6875 
L 18.109375 54.6875 
L 18.109375 46.1875 
Q 21.34375 51.125 25.703125 53.5625 
Q 30.078125 56 35.796875 56 
Q 45.21875 56 50.046875 50.171875 
Q 54.890625 44.34375 54.890625 33.015625 
z
" id="DejaVuSans-110"/>
       <path d="M 18.3125 70.21875 
L 18.3125 54.6875 
L 36.8125 54.6875 
L 36.8125 47.703125 
L 18.3125 47.703125 
L 18.3125 18.015625 
Q 18.3125 11.328125 20.140625 9.421875 
Q 21.96875 7.515625 27.59375 7.515625 
L 36.8125 7.515625 
L 36.8125 0 
L 27.59375 0 
Q 17.1875 0 13.234375 3.875 
Q 9.28125 7.765625 9.28125 18.015625 
L 9.28125 47.703125 
L 2.6875 47.703125 
L 2.6875 54.6875 
L 9.28125 54.6875 
L 9.28125 70.21875 
z
" id="DejaVuSans-116"/>
      </defs>
      <use xlink:href="#DejaVuSans-108"/>
      <use x="27.783203" xlink:href="#DejaVuSans-111"/>
      <use x="88.964844" xlink:href="#DejaVuSans-103"/>
      <use x="152.441406" xlink:href="#DejaVuSans-32"/>
      <use x="184.228516" xlink:href="#DejaVuSans-67"/>
      <use x="254.052734" xlink:href="#DejaVuSans-111"/>
      <use x="315.234375" xlink:href="#DejaVuSans-117"/>
      <use x="378.613281" xlink:href="#DejaVuSans-110"/>
      <use x="441.992188" xlink:href="#DejaVuSans-116"/>
     </g>
    </g>
   </g>
   <g id="line2d_37">
    <path clip-path="url(#p21b379b0b2)" d="M 114.950865 189 
L 117.26782 154.70979 
L 119.584775 189 
L 121.90173 89.432289 
L 124.218685 85.368227 
L 126.53564 36.497414 
L 128.852595 29.25198 
L 131.16955 29.020448 
L 133.486505 26.364458 
L 135.80346 31.439491 
L 138.120415 30.606579 
L 140.43737 32.477482 
L 142.754325 34.168262 
L 145.07128 35.830934 
L 147.388235 37.128984 
L 149.70519 38.839342 
L 152.022145 39.770657 
L 154.3391 42.462595 
L 156.656055 44.747464 
L 158.97301 40.800176 
L 161.289965 44.032525 
L 163.60692 46.945907 
L 165.923875 44.387412 
L 168.24083 46.397086 
L 170.557785 53.026674 
L 172.87474 48.081491 
L 175.191696 49.622587 
L 177.508651 46.630805 
L 179.825606 53.851256 
L 182.142561 50.068278 
L 184.459516 51.171888 
L 186.776471 56.156418 
L 189.093426 56.738449 
L 191.410381 54.922209 
L 193.727336 55.25275 
L 196.044291 56.738449 
L 198.361246 55.031899 
L 200.678201 58.069267 
L 202.995156 61.10726 
L 205.312111 64.091012 
L 207.629066 61.820138 
L 209.946021 68.411223 
L 212.262976 68.600765 
L 214.579931 68.411223 
L 216.896886 79.403045 
L 219.213841 79.110318 
L 221.530796 84.996263 
L 223.847751 76.100125 
L 226.164706 92.735209 
L 228.481661 92.735209 
L 230.798616 104.059783 
L 233.115571 107.476954 
L 235.432526 99.683374 
L 237.749481 104.059783 
L 240.066436 111.443054 
L 242.383391 123.722499 
L 244.700346 120.419579 
L 247.017301 118.92002 
L 249.334256 122.01595 
L 251.651211 110.390336 
L 253.968166 125.555572 
L 256.285121 137.564684 
L 258.602076 120.419579 
L 260.919031 129.687681 
L 263.235986 137.564684 
L 265.552941 144.680546 
L 267.869896 134.651302 
L 270.186851 171.854895 
L 272.503806 154.70979 
L 274.820761 137.564684 
L 277.137716 171.854895 
L 279.454671 161.825651 
L 281.771626 161.825651 
L 284.088581 189 
L 295.673356 189 
" style="fill:none;stroke:#1f77b4;stroke-linecap:square;stroke-width:1.5;"/>
    <defs>
     <path d="M 0 1.5 
C 0.397805 1.5 0.77937 1.341951 1.06066 1.06066 
C 1.341951 0.77937 1.5 0.397805 1.5 0 
C 1.5 -0.397805 1.341951 -0.77937 1.06066 -1.06066 
C 0.77937 -1.341951 0.397805 -1.5 0 -1.5 
C -0.397805 -1.5 -0.77937 -1.341951 -1.06066 -1.06066 
C -1.341951 -0.77937 -1.5 -0.397805 -1.5 0 
C -1.5 0.397805 -1.341951 0.77937 -1.06066 1.06066 
C -0.77937 1.341951 -0.397805 1.5 0 1.5 
z
" id="m67293aa2aa" style="stroke:#1f77b4;"/>
    </defs>
    <g clip-path="url(#p21b379b0b2)">
     <use style="fill:#1f77b4;stroke:#1f77b4;" x="114.950865" xlink:href="#m67293aa2aa" y="189"/>
     <use style="fill:#1f77b4;stroke:#1f77b4;" x="117.26782" xlink:href="#m67293aa2aa" y="154.70979"/>
     <use style="fill:#1f77b4;stroke:#1f77b4;" x="119.584775" xlink:href="#m67293aa2aa" y="189"/>
     <use style="fill:#1f77b4;stroke:#1f77b4;" x="121.90173" xlink:href="#m67293aa2aa" y="89.432289"/>
     <use style="fill:#1f77b4;stroke:#1f77b4;" x="124.218685" xlink:href="#m67293aa2aa" y="85.368227"/>
     <use style="fill:#1f77b4;stroke:#1f77b4;" x="126.53564" xlink:href="#m67293aa2aa" y="36.497414"/>
     <use style="fill:#1f77b4;stroke:#1f77b4;" x="128.852595" xlink:href="#m67293aa2aa" y="29.25198"/>
     <use style="fill:#1f77b4;stroke:#1f77b4;" x="131.16955" xlink:href="#m67293aa2aa" y="29.020448"/>
     <use style="fill:#1f77b4;stroke:#1f77b4;" x="133.486505" xlink:href="#m67293aa2aa" y="26.364458"/>
     <use style="fill:#1f77b4;stroke:#1f77b4;" x="135.80346" xlink:href="#m67293aa2aa" y="31.439491"/>
     <use style="fill:#1f77b4;stroke:#1f77b4;" x="138.120415" xlink:href="#m67293aa2aa" y="30.606579"/>
     <use style="fill:#1f77b4;stroke:#1f77b4;" x="140.43737" xlink:href="#m67293aa2aa" y="32.477482"/>
     <use style="fill:#1f77b4;stroke:#1f77b4;" x="142.754325" xlink:href="#m67293aa2aa" y="34.168262"/>
     <use style="fill:#1f77b4;stroke:#1f77b4;" x="145.07128" xlink:href="#m67293aa2aa" y="35.830934"/>
     <use style="fill:#1f77b4;stroke:#1f77b4;" x="147.388235" xlink:href="#m67293aa2aa" y="37.128984"/>
     <use style="fill:#1f77b4;stroke:#1f77b4;" x="149.70519" xlink:href="#m67293aa2aa" y="38.839342"/>
     <use style="fill:#1f77b4;stroke:#1f77b4;" x="152.022145" xlink:href="#m67293aa2aa" y="39.770657"/>
     <use style="fill:#1f77b4;stroke:#1f77b4;" x="154.3391" xlink:href="#m67293aa2aa" y="42.462595"/>
     <use style="fill:#1f77b4;stroke:#1f77b4;" x="156.656055" xlink:href="#m67293aa2aa" y="44.747464"/>
     <use style="fill:#1f77b4;stroke:#1f77b4;" x="158.97301" xlink:href="#m67293aa2aa" y="40.800176"/>
     <use style="fill:#1f77b4;stroke:#1f77b4;" x="161.289965" xlink:href="#m67293aa2aa" y="44.032525"/>
     <use style="fill:#1f77b4;stroke:#1f77b4;" x="163.60692" xlink:href="#m67293aa2aa" y="46.945907"/>
     <use style="fill:#1f77b4;stroke:#1f77b4;" x="165.923875" xlink:href="#m67293aa2aa" y="44.387412"/>
     <use style="fill:#1f77b4;stroke:#1f77b4;" x="168.24083" xlink:href="#m67293aa2aa" y="46.397086"/>
     <use style="fill:#1f77b4;stroke:#1f77b4;" x="170.557785" xlink:href="#m67293aa2aa" y="53.026674"/>
     <use style="fill:#1f77b4;stroke:#1f77b4;" x="172.87474" xlink:href="#m67293aa2aa" y="48.081491"/>
     <use style="fill:#1f77b4;stroke:#1f77b4;" x="175.191696" xlink:href="#m67293aa2aa" y="49.622587"/>
     <use style="fill:#1f77b4;stroke:#1f77b4;" x="177.508651" xlink:href="#m67293aa2aa" y="46.630805"/>
     <use style="fill:#1f77b4;stroke:#1f77b4;" x="179.825606" xlink:href="#m67293aa2aa" y="53.851256"/>
     <use style="fill:#1f77b4;stroke:#1f77b4;" x="182.142561" xlink:href="#m67293aa2aa" y="50.068278"/>
     <use style="fill:#1f77b4;stroke:#1f77b4;" x="184.459516" xlink:href="#m67293aa2aa" y="51.171888"/>
     <use style="fill:#1f77b4;stroke:#1f77b4;" x="186.776471" xlink:href="#m67293aa2aa" y="56.156418"/>
     <use style="fill:#1f77b4;stroke:#1f77b4;" x="189.093426" xlink:href="#m67293aa2aa" y="56.738449"/>
     <use style="fill:#1f77b4;stroke:#1f77b4;" x="191.410381" xlink:href="#m67293aa2aa" y="54.922209"/>
     <use style="fill:#1f77b4;stroke:#1f77b4;" x="193.727336" xlink:href="#m67293aa2aa" y="55.25275"/>
     <use style="fill:#1f77b4;stroke:#1f77b4;" x="196.044291" xlink:href="#m67293aa2aa" y="56.738449"/>
     <use style="fill:#1f77b4;stroke:#1f77b4;" x="198.361246" xlink:href="#m67293aa2aa" y="55.031899"/>
     <use style="fill:#1f77b4;stroke:#1f77b4;" x="200.678201" xlink:href="#m67293aa2aa" y="58.069267"/>
     <use style="fill:#1f77b4;stroke:#1f77b4;" x="202.995156" xlink:href="#m67293aa2aa" y="61.10726"/>
     <use style="fill:#1f77b4;stroke:#1f77b4;" x="205.312111" xlink:href="#m67293aa2aa" y="64.091012"/>
     <use style="fill:#1f77b4;stroke:#1f77b4;" x="207.629066" xlink:href="#m67293aa2aa" y="61.820138"/>
     <use style="fill:#1f77b4;stroke:#1f77b4;" x="209.946021" xlink:href="#m67293aa2aa" y="68.411223"/>
     <use style="fill:#1f77b4;stroke:#1f77b4;" x="212.262976" xlink:href="#m67293aa2aa" y="68.600765"/>
     <use style="fill:#1f77b4;stroke:#1f77b4;" x="214.579931" xlink:href="#m67293aa2aa" y="68.411223"/>
     <use style="fill:#1f77b4;stroke:#1f77b4;" x="216.896886" xlink:href="#m67293aa2aa" y="79.403045"/>
     <use style="fill:#1f77b4;stroke:#1f77b4;" x="219.213841" xlink:href="#m67293aa2aa" y="79.110318"/>
     <use style="fill:#1f77b4;stroke:#1f77b4;" x="221.530796" xlink:href="#m67293aa2aa" y="84.996263"/>
     <use style="fill:#1f77b4;stroke:#1f77b4;" x="223.847751" xlink:href="#m67293aa2aa" y="76.100125"/>
     <use style="fill:#1f77b4;stroke:#1f77b4;" x="226.164706" xlink:href="#m67293aa2aa" y="92.735209"/>
     <use style="fill:#1f77b4;stroke:#1f77b4;" x="228.481661" xlink:href="#m67293aa2aa" y="92.735209"/>
     <use style="fill:#1f77b4;stroke:#1f77b4;" x="230.798616" xlink:href="#m67293aa2aa" y="104.059783"/>
     <use style="fill:#1f77b4;stroke:#1f77b4;" x="233.115571" xlink:href="#m67293aa2aa" y="107.476954"/>
     <use style="fill:#1f77b4;stroke:#1f77b4;" x="235.432526" xlink:href="#m67293aa2aa" y="99.683374"/>
     <use style="fill:#1f77b4;stroke:#1f77b4;" x="237.749481" xlink:href="#m67293aa2aa" y="104.059783"/>
     <use style="fill:#1f77b4;stroke:#1f77b4;" x="240.066436" xlink:href="#m67293aa2aa" y="111.443054"/>
     <use style="fill:#1f77b4;stroke:#1f77b4;" x="242.383391" xlink:href="#m67293aa2aa" y="123.722499"/>
     <use style="fill:#1f77b4;stroke:#1f77b4;" x="244.700346" xlink:href="#m67293aa2aa" y="120.419579"/>
     <use style="fill:#1f77b4;stroke:#1f77b4;" x="247.017301" xlink:href="#m67293aa2aa" y="118.92002"/>
     <use style="fill:#1f77b4;stroke:#1f77b4;" x="249.334256" xlink:href="#m67293aa2aa" y="122.01595"/>
     <use style="fill:#1f77b4;stroke:#1f77b4;" x="251.651211" xlink:href="#m67293aa2aa" y="110.390336"/>
     <use style="fill:#1f77b4;stroke:#1f77b4;" x="253.968166" xlink:href="#m67293aa2aa" y="125.555572"/>
     <use style="fill:#1f77b4;stroke:#1f77b4;" x="256.285121" xlink:href="#m67293aa2aa" y="137.564684"/>
     <use style="fill:#1f77b4;stroke:#1f77b4;" x="258.602076" xlink:href="#m67293aa2aa" y="120.419579"/>
     <use style="fill:#1f77b4;stroke:#1f77b4;" x="260.919031" xlink:href="#m67293aa2aa" y="129.687681"/>
     <use style="fill:#1f77b4;stroke:#1f77b4;" x="263.235986" xlink:href="#m67293aa2aa" y="137.564684"/>
     <use style="fill:#1f77b4;stroke:#1f77b4;" x="265.552941" xlink:href="#m67293aa2aa" y="144.680546"/>
     <use style="fill:#1f77b4;stroke:#1f77b4;" x="267.869896" xlink:href="#m67293aa2aa" y="134.651302"/>
     <use style="fill:#1f77b4;stroke:#1f77b4;" x="270.186851" xlink:href="#m67293aa2aa" y="171.854895"/>
     <use style="fill:#1f77b4;stroke:#1f77b4;" x="272.503806" xlink:href="#m67293aa2aa" y="154.70979"/>
     <use style="fill:#1f77b4;stroke:#1f77b4;" x="274.820761" xlink:href="#m67293aa2aa" y="137.564684"/>
     <use style="fill:#1f77b4;stroke:#1f77b4;" x="277.137716" xlink:href="#m67293aa2aa" y="171.854895"/>
     <use style="fill:#1f77b4;stroke:#1f77b4;" x="279.454671" xlink:href="#m67293aa2aa" y="161.825651"/>
     <use style="fill:#1f77b4;stroke:#1f77b4;" x="281.771626" xlink:href="#m67293aa2aa" y="161.825651"/>
     <use style="fill:#1f77b4;stroke:#1f77b4;" x="284.088581" xlink:href="#m67293aa2aa" y="189"/>
     <use style="fill:#1f77b4;stroke:#1f77b4;" x="295.673356" xlink:href="#m67293aa2aa" y="189"/>
    </g>
   </g>
   <g id="patch_3">
    <path d="M 108 189 
L 108 25.92 
" style="fill:none;stroke:#000000;stroke-linecap:square;stroke-linejoin:miter;stroke-width:0.8;"/>
   </g>
   <g id="patch_4">
    <path d="M 304.941176 189 
L 304.941176 25.92 
" style="fill:none;stroke:#000000;stroke-linecap:square;stroke-linejoin:miter;stroke-width:0.8;"/>
   </g>
   <g id="patch_5">
    <path d="M 108 189 
L 304.941176 189 
" style="fill:none;stroke:#000000;stroke-linecap:square;stroke-linejoin:miter;stroke-width:0.8;"/>
   </g>
   <g id="patch_6">
    <path d="M 108 25.92 
L 304.941176 25.92 
" style="fill:none;stroke:#000000;stroke-linecap:square;stroke-linejoin:miter;stroke-width:0.8;"/>
   </g>
   <g id="text_10">
    <!-- Training Partition -->
    <g transform="translate(155.889651 19.92)scale(0.12 -0.12)">
     <defs>
      <path d="M -0.296875 72.90625 
L 61.375 72.90625 
L 61.375 64.59375 
L 35.5 64.59375 
L 35.5 0 
L 25.59375 0 
L 25.59375 64.59375 
L -0.296875 64.59375 
z
" id="DejaVuSans-84"/>
      <path d="M 9.421875 54.6875 
L 18.40625 54.6875 
L 18.40625 0 
L 9.421875 0 
z
M 9.421875 75.984375 
L 18.40625 75.984375 
L 18.40625 64.59375 
L 9.421875 64.59375 
z
" id="DejaVuSans-105"/>
      <path d="M 19.671875 64.796875 
L 19.671875 37.40625 
L 32.078125 37.40625 
Q 38.96875 37.40625 42.71875 40.96875 
Q 46.484375 44.53125 46.484375 51.125 
Q 46.484375 57.671875 42.71875 61.234375 
Q 38.96875 64.796875 32.078125 64.796875 
z
M 9.8125 72.90625 
L 32.078125 72.90625 
Q 44.34375 72.90625 50.609375 67.359375 
Q 56.890625 61.8125 56.890625 51.125 
Q 56.890625 40.328125 50.609375 34.8125 
Q 44.34375 29.296875 32.078125 29.296875 
L 19.671875 29.296875 
L 19.671875 0 
L 9.8125 0 
z
" id="DejaVuSans-80"/>
     </defs>
     <use xlink:href="#DejaVuSans-84"/>
     <use x="46.333984" xlink:href="#DejaVuSans-114"/>
     <use x="87.447266" xlink:href="#DejaVuSans-97"/>
     <use x="148.726562" xlink:href="#DejaVuSans-105"/>
     <use x="176.509766" xlink:href="#DejaVuSans-110"/>
     <use x="239.888672" xlink:href="#DejaVuSans-105"/>
     <use x="267.671875" xlink:href="#DejaVuSans-110"/>
     <use x="331.050781" xlink:href="#DejaVuSans-103"/>
     <use x="394.527344" xlink:href="#DejaVuSans-32"/>
     <use x="426.314453" xlink:href="#DejaVuSans-80"/>
     <use x="482.117188" xlink:href="#DejaVuSans-97"/>
     <use x="543.396484" xlink:href="#DejaVuSans-114"/>
     <use x="584.509766" xlink:href="#DejaVuSans-116"/>
     <use x="623.71875" xlink:href="#DejaVuSans-105"/>
     <use x="651.501953" xlink:href="#DejaVuSans-116"/>
     <use x="690.710938" xlink:href="#DejaVuSans-105"/>
     <use x="718.494141" xlink:href="#DejaVuSans-111"/>
     <use x="779.675781" xlink:href="#DejaVuSans-110"/>
    </g>
   </g>
  </g>
  <g id="axes_2">
   <g id="patch_7">
    <path d="M 344.329412 189 
L 541.270588 189 
L 541.270588 25.92 
L 344.329412 25.92 
z
" style="fill:#ffffff;"/>
   </g>
   <g id="matplotlib.axis_3">
    <g id="xtick_5">
     <g id="line2d_38">
      <path clip-path="url(#p4d31ec418f)" d="M 367.498962 189 
L 367.498962 25.92 
" style="fill:none;stroke:#b0b0b0;stroke-linecap:square;stroke-width:0.8;"/>
     </g>
     <g id="line2d_39">
      <g>
       <use style="stroke:#000000;stroke-width:0.8;" x="367.498962" xlink:href="#m9d50de3c9e" y="189"/>
      </g>
     </g>
     <g id="text_11">
      <!-- 20 -->
      <g transform="translate(361.136462 203.598437)scale(0.1 -0.1)">
       <use xlink:href="#DejaVuSans-50"/>
       <use x="63.623047" xlink:href="#DejaVuSans-48"/>
      </g>
     </g>
    </g>
    <g id="xtick_6">
     <g id="line2d_40">
      <path clip-path="url(#p4d31ec418f)" d="M 413.838062 189 
L 413.838062 25.92 
" style="fill:none;stroke:#b0b0b0;stroke-linecap:square;stroke-width:0.8;"/>
     </g>
     <g id="line2d_41">
      <g>
       <use style="stroke:#000000;stroke-width:0.8;" x="413.838062" xlink:href="#m9d50de3c9e" y="189"/>
      </g>
     </g>
     <g id="text_12">
      <!-- 40 -->
      <g transform="translate(407.475562 203.598437)scale(0.1 -0.1)">
       <use xlink:href="#DejaVuSans-52"/>
       <use x="63.623047" xlink:href="#DejaVuSans-48"/>
      </g>
     </g>
    </g>
    <g id="xtick_7">
     <g id="line2d_42">
      <path clip-path="url(#p4d31ec418f)" d="M 460.177163 189 
L 460.177163 25.92 
" style="fill:none;stroke:#b0b0b0;stroke-linecap:square;stroke-width:0.8;"/>
     </g>
     <g id="line2d_43">
      <g>
       <use style="stroke:#000000;stroke-width:0.8;" x="460.177163" xlink:href="#m9d50de3c9e" y="189"/>
      </g>
     </g>
     <g id="text_13">
      <!-- 60 -->
      <g transform="translate(453.814663 203.598437)scale(0.1 -0.1)">
       <use xlink:href="#DejaVuSans-54"/>
       <use x="63.623047" xlink:href="#DejaVuSans-48"/>
      </g>
     </g>
    </g>
    <g id="xtick_8">
     <g id="line2d_44">
      <path clip-path="url(#p4d31ec418f)" d="M 506.516263 189 
L 506.516263 25.92 
" style="fill:none;stroke:#b0b0b0;stroke-linecap:square;stroke-width:0.8;"/>
     </g>
     <g id="line2d_45">
      <g>
       <use style="stroke:#000000;stroke-width:0.8;" x="506.516263" xlink:href="#m9d50de3c9e" y="189"/>
      </g>
     </g>
     <g id="text_14">
      <!-- 80 -->
      <g transform="translate(500.153763 203.598437)scale(0.1 -0.1)">
       <use xlink:href="#DejaVuSans-56"/>
       <use x="63.623047" xlink:href="#DejaVuSans-48"/>
      </g>
     </g>
    </g>
    <g id="text_15">
     <!-- Speaker Age [years] -->
     <g transform="translate(391.953906 217.276563)scale(0.1 -0.1)">
      <use xlink:href="#DejaVuSans-83"/>
      <use x="63.476562" xlink:href="#DejaVuSans-112"/>
      <use x="126.953125" xlink:href="#DejaVuSans-101"/>
      <use x="188.476562" xlink:href="#DejaVuSans-97"/>
      <use x="249.755859" xlink:href="#DejaVuSans-107"/>
      <use x="304.041016" xlink:href="#DejaVuSans-101"/>
      <use x="365.564453" xlink:href="#DejaVuSans-114"/>
      <use x="406.677734" xlink:href="#DejaVuSans-32"/>
      <use x="438.464844" xlink:href="#DejaVuSans-65"/>
      <use x="506.873047" xlink:href="#DejaVuSans-103"/>
      <use x="570.349609" xlink:href="#DejaVuSans-101"/>
      <use x="631.873047" xlink:href="#DejaVuSans-32"/>
      <use x="663.660156" xlink:href="#DejaVuSans-91"/>
      <use x="702.673828" xlink:href="#DejaVuSans-121"/>
      <use x="761.853516" xlink:href="#DejaVuSans-101"/>
      <use x="823.376953" xlink:href="#DejaVuSans-97"/>
      <use x="884.65625" xlink:href="#DejaVuSans-114"/>
      <use x="925.769531" xlink:href="#DejaVuSans-115"/>
      <use x="977.869141" xlink:href="#DejaVuSans-93"/>
     </g>
    </g>
   </g>
   <g id="matplotlib.axis_4">
    <g id="ytick_26">
     <g id="line2d_46">
      <path clip-path="url(#p4d31ec418f)" d="M 344.329412 189 
L 541.270588 189 
" style="fill:none;stroke:#b0b0b0;stroke-linecap:square;stroke-width:0.8;"/>
     </g>
     <g id="line2d_47">
      <g>
       <use style="stroke:#000000;stroke-width:0.8;" x="344.329412" xlink:href="#m048f2a23a9" y="189"/>
      </g>
     </g>
     <g id="text_16">
      <!-- 0 -->
      <g transform="translate(330.966912 192.799219)scale(0.1 -0.1)">
       <use xlink:href="#DejaVuSans-48"/>
      </g>
     </g>
    </g>
    <g id="ytick_27">
     <g id="line2d_48">
      <path clip-path="url(#p4d31ec418f)" d="M 344.329412 165.702857 
L 541.270588 165.702857 
" style="fill:none;stroke:#b0b0b0;stroke-linecap:square;stroke-width:0.8;"/>
     </g>
     <g id="line2d_49">
      <g>
       <use style="stroke:#000000;stroke-width:0.8;" x="344.329412" xlink:href="#m048f2a23a9" y="165.702857"/>
      </g>
     </g>
     <g id="text_17">
      <!-- 1 -->
      <g transform="translate(330.966912 169.502076)scale(0.1 -0.1)">
       <use xlink:href="#DejaVuSans-49"/>
      </g>
     </g>
    </g>
    <g id="ytick_28">
     <g id="line2d_50">
      <path clip-path="url(#p4d31ec418f)" d="M 344.329412 142.405714 
L 541.270588 142.405714 
" style="fill:none;stroke:#b0b0b0;stroke-linecap:square;stroke-width:0.8;"/>
     </g>
     <g id="line2d_51">
      <g>
       <use style="stroke:#000000;stroke-width:0.8;" x="344.329412" xlink:href="#m048f2a23a9" y="142.405714"/>
      </g>
     </g>
     <g id="text_18">
      <!-- 2 -->
      <g transform="translate(330.966912 146.204933)scale(0.1 -0.1)">
       <use xlink:href="#DejaVuSans-50"/>
      </g>
     </g>
    </g>
    <g id="ytick_29">
     <g id="line2d_52">
      <path clip-path="url(#p4d31ec418f)" d="M 344.329412 119.108571 
L 541.270588 119.108571 
" style="fill:none;stroke:#b0b0b0;stroke-linecap:square;stroke-width:0.8;"/>
     </g>
     <g id="line2d_53">
      <g>
       <use style="stroke:#000000;stroke-width:0.8;" x="344.329412" xlink:href="#m048f2a23a9" y="119.108571"/>
      </g>
     </g>
     <g id="text_19">
      <!-- 3 -->
      <g transform="translate(330.966912 122.90779)scale(0.1 -0.1)">
       <defs>
        <path d="M 40.578125 39.3125 
Q 47.65625 37.796875 51.625 33 
Q 55.609375 28.21875 55.609375 21.1875 
Q 55.609375 10.40625 48.1875 4.484375 
Q 40.765625 -1.421875 27.09375 -1.421875 
Q 22.515625 -1.421875 17.65625 -0.515625 
Q 12.796875 0.390625 7.625 2.203125 
L 7.625 11.71875 
Q 11.71875 9.328125 16.59375 8.109375 
Q 21.484375 6.890625 26.8125 6.890625 
Q 36.078125 6.890625 40.9375 10.546875 
Q 45.796875 14.203125 45.796875 21.1875 
Q 45.796875 27.640625 41.28125 31.265625 
Q 36.765625 34.90625 28.71875 34.90625 
L 20.21875 34.90625 
L 20.21875 43.015625 
L 29.109375 43.015625 
Q 36.375 43.015625 40.234375 45.921875 
Q 44.09375 48.828125 44.09375 54.296875 
Q 44.09375 59.90625 40.109375 62.90625 
Q 36.140625 65.921875 28.71875 65.921875 
Q 24.65625 65.921875 20.015625 65.03125 
Q 15.375 64.15625 9.8125 62.3125 
L 9.8125 71.09375 
Q 15.4375 72.65625 20.34375 73.4375 
Q 25.25 74.21875 29.59375 74.21875 
Q 40.828125 74.21875 47.359375 69.109375 
Q 53.90625 64.015625 53.90625 55.328125 
Q 53.90625 49.265625 50.4375 45.09375 
Q 46.96875 40.921875 40.578125 39.3125 
z
" id="DejaVuSans-51"/>
       </defs>
       <use xlink:href="#DejaVuSans-51"/>
      </g>
     </g>
    </g>
    <g id="ytick_30">
     <g id="line2d_54">
      <path clip-path="url(#p4d31ec418f)" d="M 344.329412 95.811429 
L 541.270588 95.811429 
" style="fill:none;stroke:#b0b0b0;stroke-linecap:square;stroke-width:0.8;"/>
     </g>
     <g id="line2d_55">
      <g>
       <use style="stroke:#000000;stroke-width:0.8;" x="344.329412" xlink:href="#m048f2a23a9" y="95.811429"/>
      </g>
     </g>
     <g id="text_20">
      <!-- 4 -->
      <g transform="translate(330.966912 99.610647)scale(0.1 -0.1)">
       <use xlink:href="#DejaVuSans-52"/>
      </g>
     </g>
    </g>
    <g id="ytick_31">
     <g id="line2d_56">
      <path clip-path="url(#p4d31ec418f)" d="M 344.329412 72.514286 
L 541.270588 72.514286 
" style="fill:none;stroke:#b0b0b0;stroke-linecap:square;stroke-width:0.8;"/>
     </g>
     <g id="line2d_57">
      <g>
       <use style="stroke:#000000;stroke-width:0.8;" x="344.329412" xlink:href="#m048f2a23a9" y="72.514286"/>
      </g>
     </g>
     <g id="text_21">
      <!-- 5 -->
      <g transform="translate(330.966912 76.313504)scale(0.1 -0.1)">
       <defs>
        <path d="M 10.796875 72.90625 
L 49.515625 72.90625 
L 49.515625 64.59375 
L 19.828125 64.59375 
L 19.828125 46.734375 
Q 21.96875 47.46875 24.109375 47.828125 
Q 26.265625 48.1875 28.421875 48.1875 
Q 40.625 48.1875 47.75 41.5 
Q 54.890625 34.8125 54.890625 23.390625 
Q 54.890625 11.625 47.5625 5.09375 
Q 40.234375 -1.421875 26.90625 -1.421875 
Q 22.3125 -1.421875 17.546875 -0.640625 
Q 12.796875 0.140625 7.71875 1.703125 
L 7.71875 11.625 
Q 12.109375 9.234375 16.796875 8.0625 
Q 21.484375 6.890625 26.703125 6.890625 
Q 35.15625 6.890625 40.078125 11.328125 
Q 45.015625 15.765625 45.015625 23.390625 
Q 45.015625 31 40.078125 35.4375 
Q 35.15625 39.890625 26.703125 39.890625 
Q 22.75 39.890625 18.8125 39.015625 
Q 14.890625 38.140625 10.796875 36.28125 
z
" id="DejaVuSans-53"/>
       </defs>
       <use xlink:href="#DejaVuSans-53"/>
      </g>
     </g>
    </g>
    <g id="ytick_32">
     <g id="line2d_58">
      <path clip-path="url(#p4d31ec418f)" d="M 344.329412 49.217143 
L 541.270588 49.217143 
" style="fill:none;stroke:#b0b0b0;stroke-linecap:square;stroke-width:0.8;"/>
     </g>
     <g id="line2d_59">
      <g>
       <use style="stroke:#000000;stroke-width:0.8;" x="344.329412" xlink:href="#m048f2a23a9" y="49.217143"/>
      </g>
     </g>
     <g id="text_22">
      <!-- 6 -->
      <g transform="translate(330.966912 53.016362)scale(0.1 -0.1)">
       <use xlink:href="#DejaVuSans-54"/>
      </g>
     </g>
    </g>
    <g id="ytick_33">
     <g id="line2d_60">
      <path clip-path="url(#p4d31ec418f)" d="M 344.329412 25.92 
L 541.270588 25.92 
" style="fill:none;stroke:#b0b0b0;stroke-linecap:square;stroke-width:0.8;"/>
     </g>
     <g id="line2d_61">
      <g>
       <use style="stroke:#000000;stroke-width:0.8;" x="344.329412" xlink:href="#m048f2a23a9" y="25.92"/>
      </g>
     </g>
     <g id="text_23">
      <!-- 7 -->
      <g transform="translate(330.966912 29.719219)scale(0.1 -0.1)">
       <defs>
        <path d="M 8.203125 72.90625 
L 55.078125 72.90625 
L 55.078125 68.703125 
L 28.609375 0 
L 18.3125 0 
L 43.21875 64.59375 
L 8.203125 64.59375 
z
" id="DejaVuSans-55"/>
       </defs>
       <use xlink:href="#DejaVuSans-55"/>
      </g>
     </g>
    </g>
    <g id="text_24">
     <!-- Count -->
     <g transform="translate(324.887224 122.308437)rotate(-90)scale(0.1 -0.1)">
      <use xlink:href="#DejaVuSans-67"/>
      <use x="69.824219" xlink:href="#DejaVuSans-111"/>
      <use x="131.005859" xlink:href="#DejaVuSans-117"/>
      <use x="194.384766" xlink:href="#DejaVuSans-110"/>
      <use x="257.763672" xlink:href="#DejaVuSans-116"/>
     </g>
    </g>
   </g>
   <g id="line2d_62">
    <path clip-path="url(#p4d31ec418f)" d="M 362.865052 49.217143 
L 365.182007 49.217143 
L 367.498962 49.217143 
L 369.815917 49.217143 
L 372.132872 49.217143 
L 374.449827 49.217143 
L 376.766782 49.217143 
L 379.083737 49.217143 
L 381.400692 49.217143 
L 383.717647 49.217143 
L 386.034602 49.217143 
L 388.351557 49.217143 
L 390.668512 49.217143 
L 392.985467 49.217143 
L 395.302422 49.217143 
L 397.619377 49.217143 
L 399.936332 49.217143 
L 402.253287 49.217143 
L 404.570242 49.217143 
L 406.887197 49.217143 
L 409.204152 49.217143 
L 411.521107 49.217143 
L 413.838062 49.217143 
L 416.155017 49.217143 
L 418.471972 49.217143 
L 420.788927 49.217143 
L 423.105882 49.217143 
L 425.422837 49.217143 
L 427.739792 49.217143 
L 430.056747 49.217143 
L 432.373702 49.217143 
L 434.690657 49.217143 
L 437.007612 49.217143 
L 439.324567 49.217143 
L 441.641522 49.217143 
L 443.958478 49.217143 
L 446.275433 49.217143 
L 448.592388 49.217143 
L 450.909343 49.217143 
L 453.226298 49.217143 
L 455.543253 49.217143 
L 457.860208 49.217143 
L 460.177163 49.217143 
L 462.494118 49.217143 
L 464.811073 49.217143 
L 467.128028 49.217143 
L 469.444983 49.217143 
L 471.761938 49.217143 
L 474.078893 49.217143 
L 476.395848 72.514286 
L 478.712803 95.811429 
L 481.029758 72.514286 
L 483.346713 72.514286 
" style="fill:none;stroke:#1f77b4;stroke-linecap:square;stroke-width:1.5;"/>
    <g clip-path="url(#p4d31ec418f)">
     <use style="fill:#1f77b4;stroke:#1f77b4;" x="362.865052" xlink:href="#m67293aa2aa" y="49.217143"/>
     <use style="fill:#1f77b4;stroke:#1f77b4;" x="365.182007" xlink:href="#m67293aa2aa" y="49.217143"/>
     <use style="fill:#1f77b4;stroke:#1f77b4;" x="367.498962" xlink:href="#m67293aa2aa" y="49.217143"/>
     <use style="fill:#1f77b4;stroke:#1f77b4;" x="369.815917" xlink:href="#m67293aa2aa" y="49.217143"/>
     <use style="fill:#1f77b4;stroke:#1f77b4;" x="372.132872" xlink:href="#m67293aa2aa" y="49.217143"/>
     <use style="fill:#1f77b4;stroke:#1f77b4;" x="374.449827" xlink:href="#m67293aa2aa" y="49.217143"/>
     <use style="fill:#1f77b4;stroke:#1f77b4;" x="376.766782" xlink:href="#m67293aa2aa" y="49.217143"/>
     <use style="fill:#1f77b4;stroke:#1f77b4;" x="379.083737" xlink:href="#m67293aa2aa" y="49.217143"/>
     <use style="fill:#1f77b4;stroke:#1f77b4;" x="381.400692" xlink:href="#m67293aa2aa" y="49.217143"/>
     <use style="fill:#1f77b4;stroke:#1f77b4;" x="383.717647" xlink:href="#m67293aa2aa" y="49.217143"/>
     <use style="fill:#1f77b4;stroke:#1f77b4;" x="386.034602" xlink:href="#m67293aa2aa" y="49.217143"/>
     <use style="fill:#1f77b4;stroke:#1f77b4;" x="388.351557" xlink:href="#m67293aa2aa" y="49.217143"/>
     <use style="fill:#1f77b4;stroke:#1f77b4;" x="390.668512" xlink:href="#m67293aa2aa" y="49.217143"/>
     <use style="fill:#1f77b4;stroke:#1f77b4;" x="392.985467" xlink:href="#m67293aa2aa" y="49.217143"/>
     <use style="fill:#1f77b4;stroke:#1f77b4;" x="395.302422" xlink:href="#m67293aa2aa" y="49.217143"/>
     <use style="fill:#1f77b4;stroke:#1f77b4;" x="397.619377" xlink:href="#m67293aa2aa" y="49.217143"/>
     <use style="fill:#1f77b4;stroke:#1f77b4;" x="399.936332" xlink:href="#m67293aa2aa" y="49.217143"/>
     <use style="fill:#1f77b4;stroke:#1f77b4;" x="402.253287" xlink:href="#m67293aa2aa" y="49.217143"/>
     <use style="fill:#1f77b4;stroke:#1f77b4;" x="404.570242" xlink:href="#m67293aa2aa" y="49.217143"/>
     <use style="fill:#1f77b4;stroke:#1f77b4;" x="406.887197" xlink:href="#m67293aa2aa" y="49.217143"/>
     <use style="fill:#1f77b4;stroke:#1f77b4;" x="409.204152" xlink:href="#m67293aa2aa" y="49.217143"/>
     <use style="fill:#1f77b4;stroke:#1f77b4;" x="411.521107" xlink:href="#m67293aa2aa" y="49.217143"/>
     <use style="fill:#1f77b4;stroke:#1f77b4;" x="413.838062" xlink:href="#m67293aa2aa" y="49.217143"/>
     <use style="fill:#1f77b4;stroke:#1f77b4;" x="416.155017" xlink:href="#m67293aa2aa" y="49.217143"/>
     <use style="fill:#1f77b4;stroke:#1f77b4;" x="418.471972" xlink:href="#m67293aa2aa" y="49.217143"/>
     <use style="fill:#1f77b4;stroke:#1f77b4;" x="420.788927" xlink:href="#m67293aa2aa" y="49.217143"/>
     <use style="fill:#1f77b4;stroke:#1f77b4;" x="423.105882" xlink:href="#m67293aa2aa" y="49.217143"/>
     <use style="fill:#1f77b4;stroke:#1f77b4;" x="425.422837" xlink:href="#m67293aa2aa" y="49.217143"/>
     <use style="fill:#1f77b4;stroke:#1f77b4;" x="427.739792" xlink:href="#m67293aa2aa" y="49.217143"/>
     <use style="fill:#1f77b4;stroke:#1f77b4;" x="430.056747" xlink:href="#m67293aa2aa" y="49.217143"/>
     <use style="fill:#1f77b4;stroke:#1f77b4;" x="432.373702" xlink:href="#m67293aa2aa" y="49.217143"/>
     <use style="fill:#1f77b4;stroke:#1f77b4;" x="434.690657" xlink:href="#m67293aa2aa" y="49.217143"/>
     <use style="fill:#1f77b4;stroke:#1f77b4;" x="437.007612" xlink:href="#m67293aa2aa" y="49.217143"/>
     <use style="fill:#1f77b4;stroke:#1f77b4;" x="439.324567" xlink:href="#m67293aa2aa" y="49.217143"/>
     <use style="fill:#1f77b4;stroke:#1f77b4;" x="441.641522" xlink:href="#m67293aa2aa" y="49.217143"/>
     <use style="fill:#1f77b4;stroke:#1f77b4;" x="443.958478" xlink:href="#m67293aa2aa" y="49.217143"/>
     <use style="fill:#1f77b4;stroke:#1f77b4;" x="446.275433" xlink:href="#m67293aa2aa" y="49.217143"/>
     <use style="fill:#1f77b4;stroke:#1f77b4;" x="448.592388" xlink:href="#m67293aa2aa" y="49.217143"/>
     <use style="fill:#1f77b4;stroke:#1f77b4;" x="450.909343" xlink:href="#m67293aa2aa" y="49.217143"/>
     <use style="fill:#1f77b4;stroke:#1f77b4;" x="453.226298" xlink:href="#m67293aa2aa" y="49.217143"/>
     <use style="fill:#1f77b4;stroke:#1f77b4;" x="455.543253" xlink:href="#m67293aa2aa" y="49.217143"/>
     <use style="fill:#1f77b4;stroke:#1f77b4;" x="457.860208" xlink:href="#m67293aa2aa" y="49.217143"/>
     <use style="fill:#1f77b4;stroke:#1f77b4;" x="460.177163" xlink:href="#m67293aa2aa" y="49.217143"/>
     <use style="fill:#1f77b4;stroke:#1f77b4;" x="462.494118" xlink:href="#m67293aa2aa" y="49.217143"/>
     <use style="fill:#1f77b4;stroke:#1f77b4;" x="464.811073" xlink:href="#m67293aa2aa" y="49.217143"/>
     <use style="fill:#1f77b4;stroke:#1f77b4;" x="467.128028" xlink:href="#m67293aa2aa" y="49.217143"/>
     <use style="fill:#1f77b4;stroke:#1f77b4;" x="469.444983" xlink:href="#m67293aa2aa" y="49.217143"/>
     <use style="fill:#1f77b4;stroke:#1f77b4;" x="471.761938" xlink:href="#m67293aa2aa" y="49.217143"/>
     <use style="fill:#1f77b4;stroke:#1f77b4;" x="474.078893" xlink:href="#m67293aa2aa" y="49.217143"/>
     <use style="fill:#1f77b4;stroke:#1f77b4;" x="476.395848" xlink:href="#m67293aa2aa" y="72.514286"/>
     <use style="fill:#1f77b4;stroke:#1f77b4;" x="478.712803" xlink:href="#m67293aa2aa" y="95.811429"/>
     <use style="fill:#1f77b4;stroke:#1f77b4;" x="481.029758" xlink:href="#m67293aa2aa" y="72.514286"/>
     <use style="fill:#1f77b4;stroke:#1f77b4;" x="483.346713" xlink:href="#m67293aa2aa" y="72.514286"/>
    </g>
   </g>
   <g id="patch_8">
    <path d="M 344.329412 189 
L 344.329412 25.92 
" style="fill:none;stroke:#000000;stroke-linecap:square;stroke-linejoin:miter;stroke-width:0.8;"/>
   </g>
   <g id="patch_9">
    <path d="M 541.270588 189 
L 541.270588 25.92 
" style="fill:none;stroke:#000000;stroke-linecap:square;stroke-linejoin:miter;stroke-width:0.8;"/>
   </g>
   <g id="patch_10">
    <path d="M 344.329412 189 
L 541.270588 189 
" style="fill:none;stroke:#000000;stroke-linecap:square;stroke-linejoin:miter;stroke-width:0.8;"/>
   </g>
   <g id="patch_11">
    <path d="M 344.329412 25.92 
L 541.270588 25.92 
" style="fill:none;stroke:#000000;stroke-linecap:square;stroke-linejoin:miter;stroke-width:0.8;"/>
   </g>
   <g id="text_25">
    <!-- Development Partition -->
    <g transform="translate(375.496875 19.92)scale(0.12 -0.12)">
     <defs>
      <path d="M 19.671875 64.796875 
L 19.671875 8.109375 
L 31.59375 8.109375 
Q 46.6875 8.109375 53.6875 14.9375 
Q 60.6875 21.78125 60.6875 36.53125 
Q 60.6875 51.171875 53.6875 57.984375 
Q 46.6875 64.796875 31.59375 64.796875 
z
M 9.8125 72.90625 
L 30.078125 72.90625 
Q 51.265625 72.90625 61.171875 64.09375 
Q 71.09375 55.28125 71.09375 36.53125 
Q 71.09375 17.671875 61.125 8.828125 
Q 51.171875 0 30.078125 0 
L 9.8125 0 
z
" id="DejaVuSans-68"/>
      <path d="M 2.984375 54.6875 
L 12.5 54.6875 
L 29.59375 8.796875 
L 46.6875 54.6875 
L 56.203125 54.6875 
L 35.6875 0 
L 23.484375 0 
z
" id="DejaVuSans-118"/>
      <path d="M 52 44.1875 
Q 55.375 50.25 60.0625 53.125 
Q 64.75 56 71.09375 56 
Q 79.640625 56 84.28125 50.015625 
Q 88.921875 44.046875 88.921875 33.015625 
L 88.921875 0 
L 79.890625 0 
L 79.890625 32.71875 
Q 79.890625 40.578125 77.09375 44.375 
Q 74.3125 48.1875 68.609375 48.1875 
Q 61.625 48.1875 57.5625 43.546875 
Q 53.515625 38.921875 53.515625 30.90625 
L 53.515625 0 
L 44.484375 0 
L 44.484375 32.71875 
Q 44.484375 40.625 41.703125 44.40625 
Q 38.921875 48.1875 33.109375 48.1875 
Q 26.21875 48.1875 22.15625 43.53125 
Q 18.109375 38.875 18.109375 30.90625 
L 18.109375 0 
L 9.078125 0 
L 9.078125 54.6875 
L 18.109375 54.6875 
L 18.109375 46.1875 
Q 21.1875 51.21875 25.484375 53.609375 
Q 29.78125 56 35.6875 56 
Q 41.65625 56 45.828125 52.96875 
Q 50 49.953125 52 44.1875 
z
" id="DejaVuSans-109"/>
     </defs>
     <use xlink:href="#DejaVuSans-68"/>
     <use x="77.001953" xlink:href="#DejaVuSans-101"/>
     <use x="138.525391" xlink:href="#DejaVuSans-118"/>
     <use x="197.705078" xlink:href="#DejaVuSans-101"/>
     <use x="259.228516" xlink:href="#DejaVuSans-108"/>
     <use x="287.011719" xlink:href="#DejaVuSans-111"/>
     <use x="348.193359" xlink:href="#DejaVuSans-112"/>
     <use x="411.669922" xlink:href="#DejaVuSans-109"/>
     <use x="509.082031" xlink:href="#DejaVuSans-101"/>
     <use x="570.605469" xlink:href="#DejaVuSans-110"/>
     <use x="633.984375" xlink:href="#DejaVuSans-116"/>
     <use x="673.193359" xlink:href="#DejaVuSans-32"/>
     <use x="704.980469" xlink:href="#DejaVuSans-80"/>
     <use x="760.783203" xlink:href="#DejaVuSans-97"/>
     <use x="822.0625" xlink:href="#DejaVuSans-114"/>
     <use x="863.175781" xlink:href="#DejaVuSans-116"/>
     <use x="902.384766" xlink:href="#DejaVuSans-105"/>
     <use x="930.167969" xlink:href="#DejaVuSans-116"/>
     <use x="969.376953" xlink:href="#DejaVuSans-105"/>
     <use x="997.160156" xlink:href="#DejaVuSans-111"/>
     <use x="1058.341797" xlink:href="#DejaVuSans-110"/>
    </g>
   </g>
  </g>
  <g id="axes_3">
   <g id="patch_12">
    <path d="M 580.658824 189 
L 777.6 189 
L 777.6 25.92 
L 580.658824 25.92 
z
" style="fill:#ffffff;"/>
   </g>
   <g id="matplotlib.axis_5">
    <g id="xtick_9">
     <g id="line2d_63">
      <path clip-path="url(#p73687da7c6)" d="M 603.828374 189 
L 603.828374 25.92 
" style="fill:none;stroke:#b0b0b0;stroke-linecap:square;stroke-width:0.8;"/>
     </g>
     <g id="line2d_64">
      <g>
       <use style="stroke:#000000;stroke-width:0.8;" x="603.828374" xlink:href="#m9d50de3c9e" y="189"/>
      </g>
     </g>
     <g id="text_26">
      <!-- 20 -->
      <g transform="translate(597.465874 203.598437)scale(0.1 -0.1)">
       <use xlink:href="#DejaVuSans-50"/>
       <use x="63.623047" xlink:href="#DejaVuSans-48"/>
      </g>
     </g>
    </g>
    <g id="xtick_10">
     <g id="line2d_65">
      <path clip-path="url(#p73687da7c6)" d="M 650.167474 189 
L 650.167474 25.92 
" style="fill:none;stroke:#b0b0b0;stroke-linecap:square;stroke-width:0.8;"/>
     </g>
     <g id="line2d_66">
      <g>
       <use style="stroke:#000000;stroke-width:0.8;" x="650.167474" xlink:href="#m9d50de3c9e" y="189"/>
      </g>
     </g>
     <g id="text_27">
      <!-- 40 -->
      <g transform="translate(643.804974 203.598437)scale(0.1 -0.1)">
       <use xlink:href="#DejaVuSans-52"/>
       <use x="63.623047" xlink:href="#DejaVuSans-48"/>
      </g>
     </g>
    </g>
    <g id="xtick_11">
     <g id="line2d_67">
      <path clip-path="url(#p73687da7c6)" d="M 696.506574 189 
L 696.506574 25.92 
" style="fill:none;stroke:#b0b0b0;stroke-linecap:square;stroke-width:0.8;"/>
     </g>
     <g id="line2d_68">
      <g>
       <use style="stroke:#000000;stroke-width:0.8;" x="696.506574" xlink:href="#m9d50de3c9e" y="189"/>
      </g>
     </g>
     <g id="text_28">
      <!-- 60 -->
      <g transform="translate(690.144074 203.598437)scale(0.1 -0.1)">
       <use xlink:href="#DejaVuSans-54"/>
       <use x="63.623047" xlink:href="#DejaVuSans-48"/>
      </g>
     </g>
    </g>
    <g id="xtick_12">
     <g id="line2d_69">
      <path clip-path="url(#p73687da7c6)" d="M 742.845675 189 
L 742.845675 25.92 
" style="fill:none;stroke:#b0b0b0;stroke-linecap:square;stroke-width:0.8;"/>
     </g>
     <g id="line2d_70">
      <g>
       <use style="stroke:#000000;stroke-width:0.8;" x="742.845675" xlink:href="#m9d50de3c9e" y="189"/>
      </g>
     </g>
     <g id="text_29">
      <!-- 80 -->
      <g transform="translate(736.483175 203.598437)scale(0.1 -0.1)">
       <use xlink:href="#DejaVuSans-56"/>
       <use x="63.623047" xlink:href="#DejaVuSans-48"/>
      </g>
     </g>
    </g>
    <g id="text_30">
     <!-- Speaker Age [years] -->
     <g transform="translate(628.283318 217.276563)scale(0.1 -0.1)">
      <use xlink:href="#DejaVuSans-83"/>
      <use x="63.476562" xlink:href="#DejaVuSans-112"/>
      <use x="126.953125" xlink:href="#DejaVuSans-101"/>
      <use x="188.476562" xlink:href="#DejaVuSans-97"/>
      <use x="249.755859" xlink:href="#DejaVuSans-107"/>
      <use x="304.041016" xlink:href="#DejaVuSans-101"/>
      <use x="365.564453" xlink:href="#DejaVuSans-114"/>
      <use x="406.677734" xlink:href="#DejaVuSans-32"/>
      <use x="438.464844" xlink:href="#DejaVuSans-65"/>
      <use x="506.873047" xlink:href="#DejaVuSans-103"/>
      <use x="570.349609" xlink:href="#DejaVuSans-101"/>
      <use x="631.873047" xlink:href="#DejaVuSans-32"/>
      <use x="663.660156" xlink:href="#DejaVuSans-91"/>
      <use x="702.673828" xlink:href="#DejaVuSans-121"/>
      <use x="761.853516" xlink:href="#DejaVuSans-101"/>
      <use x="823.376953" xlink:href="#DejaVuSans-97"/>
      <use x="884.65625" xlink:href="#DejaVuSans-114"/>
      <use x="925.769531" xlink:href="#DejaVuSans-115"/>
      <use x="977.869141" xlink:href="#DejaVuSans-93"/>
     </g>
    </g>
   </g>
   <g id="matplotlib.axis_6">
    <g id="ytick_34">
     <g id="line2d_71">
      <path clip-path="url(#p73687da7c6)" d="M 580.658824 189 
L 777.6 189 
" style="fill:none;stroke:#b0b0b0;stroke-linecap:square;stroke-width:0.8;"/>
     </g>
     <g id="line2d_72">
      <g>
       <use style="stroke:#000000;stroke-width:0.8;" x="580.658824" xlink:href="#m048f2a23a9" y="189"/>
      </g>
     </g>
     <g id="text_31">
      <!-- 0 -->
      <g transform="translate(567.296324 192.799219)scale(0.1 -0.1)">
       <use xlink:href="#DejaVuSans-48"/>
      </g>
     </g>
    </g>
    <g id="ytick_35">
     <g id="line2d_73">
      <path clip-path="url(#p73687da7c6)" d="M 580.658824 165.702857 
L 777.6 165.702857 
" style="fill:none;stroke:#b0b0b0;stroke-linecap:square;stroke-width:0.8;"/>
     </g>
     <g id="line2d_74">
      <g>
       <use style="stroke:#000000;stroke-width:0.8;" x="580.658824" xlink:href="#m048f2a23a9" y="165.702857"/>
      </g>
     </g>
     <g id="text_32">
      <!-- 1 -->
      <g transform="translate(567.296324 169.502076)scale(0.1 -0.1)">
       <use xlink:href="#DejaVuSans-49"/>
      </g>
     </g>
    </g>
    <g id="ytick_36">
     <g id="line2d_75">
      <path clip-path="url(#p73687da7c6)" d="M 580.658824 142.405714 
L 777.6 142.405714 
" style="fill:none;stroke:#b0b0b0;stroke-linecap:square;stroke-width:0.8;"/>
     </g>
     <g id="line2d_76">
      <g>
       <use style="stroke:#000000;stroke-width:0.8;" x="580.658824" xlink:href="#m048f2a23a9" y="142.405714"/>
      </g>
     </g>
     <g id="text_33">
      <!-- 2 -->
      <g transform="translate(567.296324 146.204933)scale(0.1 -0.1)">
       <use xlink:href="#DejaVuSans-50"/>
      </g>
     </g>
    </g>
    <g id="ytick_37">
     <g id="line2d_77">
      <path clip-path="url(#p73687da7c6)" d="M 580.658824 119.108571 
L 777.6 119.108571 
" style="fill:none;stroke:#b0b0b0;stroke-linecap:square;stroke-width:0.8;"/>
     </g>
     <g id="line2d_78">
      <g>
       <use style="stroke:#000000;stroke-width:0.8;" x="580.658824" xlink:href="#m048f2a23a9" y="119.108571"/>
      </g>
     </g>
     <g id="text_34">
      <!-- 3 -->
      <g transform="translate(567.296324 122.90779)scale(0.1 -0.1)">
       <use xlink:href="#DejaVuSans-51"/>
      </g>
     </g>
    </g>
    <g id="ytick_38">
     <g id="line2d_79">
      <path clip-path="url(#p73687da7c6)" d="M 580.658824 95.811429 
L 777.6 95.811429 
" style="fill:none;stroke:#b0b0b0;stroke-linecap:square;stroke-width:0.8;"/>
     </g>
     <g id="line2d_80">
      <g>
       <use style="stroke:#000000;stroke-width:0.8;" x="580.658824" xlink:href="#m048f2a23a9" y="95.811429"/>
      </g>
     </g>
     <g id="text_35">
      <!-- 4 -->
      <g transform="translate(567.296324 99.610647)scale(0.1 -0.1)">
       <use xlink:href="#DejaVuSans-52"/>
      </g>
     </g>
    </g>
    <g id="ytick_39">
     <g id="line2d_81">
      <path clip-path="url(#p73687da7c6)" d="M 580.658824 72.514286 
L 777.6 72.514286 
" style="fill:none;stroke:#b0b0b0;stroke-linecap:square;stroke-width:0.8;"/>
     </g>
     <g id="line2d_82">
      <g>
       <use style="stroke:#000000;stroke-width:0.8;" x="580.658824" xlink:href="#m048f2a23a9" y="72.514286"/>
      </g>
     </g>
     <g id="text_36">
      <!-- 5 -->
      <g transform="translate(567.296324 76.313504)scale(0.1 -0.1)">
       <use xlink:href="#DejaVuSans-53"/>
      </g>
     </g>
    </g>
    <g id="ytick_40">
     <g id="line2d_83">
      <path clip-path="url(#p73687da7c6)" d="M 580.658824 49.217143 
L 777.6 49.217143 
" style="fill:none;stroke:#b0b0b0;stroke-linecap:square;stroke-width:0.8;"/>
     </g>
     <g id="line2d_84">
      <g>
       <use style="stroke:#000000;stroke-width:0.8;" x="580.658824" xlink:href="#m048f2a23a9" y="49.217143"/>
      </g>
     </g>
     <g id="text_37">
      <!-- 6 -->
      <g transform="translate(567.296324 53.016362)scale(0.1 -0.1)">
       <use xlink:href="#DejaVuSans-54"/>
      </g>
     </g>
    </g>
    <g id="ytick_41">
     <g id="line2d_85">
      <path clip-path="url(#p73687da7c6)" d="M 580.658824 25.92 
L 777.6 25.92 
" style="fill:none;stroke:#b0b0b0;stroke-linecap:square;stroke-width:0.8;"/>
     </g>
     <g id="line2d_86">
      <g>
       <use style="stroke:#000000;stroke-width:0.8;" x="580.658824" xlink:href="#m048f2a23a9" y="25.92"/>
      </g>
     </g>
     <g id="text_38">
      <!-- 7 -->
      <g transform="translate(567.296324 29.719219)scale(0.1 -0.1)">
       <use xlink:href="#DejaVuSans-55"/>
      </g>
     </g>
    </g>
    <g id="text_39">
     <!-- Count -->
     <g transform="translate(561.216636 122.308437)rotate(-90)scale(0.1 -0.1)">
      <use xlink:href="#DejaVuSans-67"/>
      <use x="69.824219" xlink:href="#DejaVuSans-111"/>
      <use x="131.005859" xlink:href="#DejaVuSans-117"/>
      <use x="194.384766" xlink:href="#DejaVuSans-110"/>
      <use x="257.763672" xlink:href="#DejaVuSans-116"/>
     </g>
    </g>
   </g>
   <g id="line2d_87">
    <path clip-path="url(#p73687da7c6)" d="M 599.194464 49.217143 
L 601.511419 49.217143 
L 603.828374 49.217143 
L 606.145329 49.217143 
L 608.462284 49.217143 
L 610.779239 49.217143 
L 613.096194 49.217143 
L 615.413149 49.217143 
L 617.730104 49.217143 
L 620.047059 49.217143 
L 622.364014 49.217143 
L 624.680969 49.217143 
L 626.997924 49.217143 
L 629.314879 49.217143 
L 631.631834 49.217143 
L 633.948789 49.217143 
L 636.265744 49.217143 
L 638.582699 49.217143 
L 640.899654 49.217143 
L 643.216609 49.217143 
L 645.533564 49.217143 
L 647.850519 49.217143 
L 650.167474 49.217143 
L 652.484429 49.217143 
L 654.801384 49.217143 
L 657.118339 49.217143 
L 659.435294 49.217143 
L 661.752249 49.217143 
L 664.069204 49.217143 
L 666.386159 49.217143 
L 668.703114 49.217143 
L 671.020069 49.217143 
L 673.337024 49.217143 
L 675.653979 49.217143 
L 677.970934 49.217143 
L 680.287889 49.217143 
L 682.604844 49.217143 
L 684.921799 49.217143 
L 687.238754 49.217143 
L 689.555709 49.217143 
L 691.872664 49.217143 
L 694.189619 49.217143 
L 696.506574 49.217143 
L 698.823529 49.217143 
L 701.140484 49.217143 
L 703.457439 49.217143 
L 705.774394 49.217143 
L 708.091349 49.217143 
L 710.408304 49.217143 
L 712.72526 49.217143 
L 715.042215 49.217143 
L 717.35917 49.217143 
L 719.676125 49.217143 
" style="fill:none;stroke:#1f77b4;stroke-linecap:square;stroke-width:1.5;"/>
    <g clip-path="url(#p73687da7c6)">
     <use style="fill:#1f77b4;stroke:#1f77b4;" x="599.194464" xlink:href="#m67293aa2aa" y="49.217143"/>
     <use style="fill:#1f77b4;stroke:#1f77b4;" x="601.511419" xlink:href="#m67293aa2aa" y="49.217143"/>
     <use style="fill:#1f77b4;stroke:#1f77b4;" x="603.828374" xlink:href="#m67293aa2aa" y="49.217143"/>
     <use style="fill:#1f77b4;stroke:#1f77b4;" x="606.145329" xlink:href="#m67293aa2aa" y="49.217143"/>
     <use style="fill:#1f77b4;stroke:#1f77b4;" x="608.462284" xlink:href="#m67293aa2aa" y="49.217143"/>
     <use style="fill:#1f77b4;stroke:#1f77b4;" x="610.779239" xlink:href="#m67293aa2aa" y="49.217143"/>
     <use style="fill:#1f77b4;stroke:#1f77b4;" x="613.096194" xlink:href="#m67293aa2aa" y="49.217143"/>
     <use style="fill:#1f77b4;stroke:#1f77b4;" x="615.413149" xlink:href="#m67293aa2aa" y="49.217143"/>
     <use style="fill:#1f77b4;stroke:#1f77b4;" x="617.730104" xlink:href="#m67293aa2aa" y="49.217143"/>
     <use style="fill:#1f77b4;stroke:#1f77b4;" x="620.047059" xlink:href="#m67293aa2aa" y="49.217143"/>
     <use style="fill:#1f77b4;stroke:#1f77b4;" x="622.364014" xlink:href="#m67293aa2aa" y="49.217143"/>
     <use style="fill:#1f77b4;stroke:#1f77b4;" x="624.680969" xlink:href="#m67293aa2aa" y="49.217143"/>
     <use style="fill:#1f77b4;stroke:#1f77b4;" x="626.997924" xlink:href="#m67293aa2aa" y="49.217143"/>
     <use style="fill:#1f77b4;stroke:#1f77b4;" x="629.314879" xlink:href="#m67293aa2aa" y="49.217143"/>
     <use style="fill:#1f77b4;stroke:#1f77b4;" x="631.631834" xlink:href="#m67293aa2aa" y="49.217143"/>
     <use style="fill:#1f77b4;stroke:#1f77b4;" x="633.948789" xlink:href="#m67293aa2aa" y="49.217143"/>
     <use style="fill:#1f77b4;stroke:#1f77b4;" x="636.265744" xlink:href="#m67293aa2aa" y="49.217143"/>
     <use style="fill:#1f77b4;stroke:#1f77b4;" x="638.582699" xlink:href="#m67293aa2aa" y="49.217143"/>
     <use style="fill:#1f77b4;stroke:#1f77b4;" x="640.899654" xlink:href="#m67293aa2aa" y="49.217143"/>
     <use style="fill:#1f77b4;stroke:#1f77b4;" x="643.216609" xlink:href="#m67293aa2aa" y="49.217143"/>
     <use style="fill:#1f77b4;stroke:#1f77b4;" x="645.533564" xlink:href="#m67293aa2aa" y="49.217143"/>
     <use style="fill:#1f77b4;stroke:#1f77b4;" x="647.850519" xlink:href="#m67293aa2aa" y="49.217143"/>
     <use style="fill:#1f77b4;stroke:#1f77b4;" x="650.167474" xlink:href="#m67293aa2aa" y="49.217143"/>
     <use style="fill:#1f77b4;stroke:#1f77b4;" x="652.484429" xlink:href="#m67293aa2aa" y="49.217143"/>
     <use style="fill:#1f77b4;stroke:#1f77b4;" x="654.801384" xlink:href="#m67293aa2aa" y="49.217143"/>
     <use style="fill:#1f77b4;stroke:#1f77b4;" x="657.118339" xlink:href="#m67293aa2aa" y="49.217143"/>
     <use style="fill:#1f77b4;stroke:#1f77b4;" x="659.435294" xlink:href="#m67293aa2aa" y="49.217143"/>
     <use style="fill:#1f77b4;stroke:#1f77b4;" x="661.752249" xlink:href="#m67293aa2aa" y="49.217143"/>
     <use style="fill:#1f77b4;stroke:#1f77b4;" x="664.069204" xlink:href="#m67293aa2aa" y="49.217143"/>
     <use style="fill:#1f77b4;stroke:#1f77b4;" x="666.386159" xlink:href="#m67293aa2aa" y="49.217143"/>
     <use style="fill:#1f77b4;stroke:#1f77b4;" x="668.703114" xlink:href="#m67293aa2aa" y="49.217143"/>
     <use style="fill:#1f77b4;stroke:#1f77b4;" x="671.020069" xlink:href="#m67293aa2aa" y="49.217143"/>
     <use style="fill:#1f77b4;stroke:#1f77b4;" x="673.337024" xlink:href="#m67293aa2aa" y="49.217143"/>
     <use style="fill:#1f77b4;stroke:#1f77b4;" x="675.653979" xlink:href="#m67293aa2aa" y="49.217143"/>
     <use style="fill:#1f77b4;stroke:#1f77b4;" x="677.970934" xlink:href="#m67293aa2aa" y="49.217143"/>
     <use style="fill:#1f77b4;stroke:#1f77b4;" x="680.287889" xlink:href="#m67293aa2aa" y="49.217143"/>
     <use style="fill:#1f77b4;stroke:#1f77b4;" x="682.604844" xlink:href="#m67293aa2aa" y="49.217143"/>
     <use style="fill:#1f77b4;stroke:#1f77b4;" x="684.921799" xlink:href="#m67293aa2aa" y="49.217143"/>
     <use style="fill:#1f77b4;stroke:#1f77b4;" x="687.238754" xlink:href="#m67293aa2aa" y="49.217143"/>
     <use style="fill:#1f77b4;stroke:#1f77b4;" x="689.555709" xlink:href="#m67293aa2aa" y="49.217143"/>
     <use style="fill:#1f77b4;stroke:#1f77b4;" x="691.872664" xlink:href="#m67293aa2aa" y="49.217143"/>
     <use style="fill:#1f77b4;stroke:#1f77b4;" x="694.189619" xlink:href="#m67293aa2aa" y="49.217143"/>
     <use style="fill:#1f77b4;stroke:#1f77b4;" x="696.506574" xlink:href="#m67293aa2aa" y="49.217143"/>
     <use style="fill:#1f77b4;stroke:#1f77b4;" x="698.823529" xlink:href="#m67293aa2aa" y="49.217143"/>
     <use style="fill:#1f77b4;stroke:#1f77b4;" x="701.140484" xlink:href="#m67293aa2aa" y="49.217143"/>
     <use style="fill:#1f77b4;stroke:#1f77b4;" x="703.457439" xlink:href="#m67293aa2aa" y="49.217143"/>
     <use style="fill:#1f77b4;stroke:#1f77b4;" x="705.774394" xlink:href="#m67293aa2aa" y="49.217143"/>
     <use style="fill:#1f77b4;stroke:#1f77b4;" x="708.091349" xlink:href="#m67293aa2aa" y="49.217143"/>
     <use style="fill:#1f77b4;stroke:#1f77b4;" x="710.408304" xlink:href="#m67293aa2aa" y="49.217143"/>
     <use style="fill:#1f77b4;stroke:#1f77b4;" x="712.72526" xlink:href="#m67293aa2aa" y="49.217143"/>
     <use style="fill:#1f77b4;stroke:#1f77b4;" x="715.042215" xlink:href="#m67293aa2aa" y="49.217143"/>
     <use style="fill:#1f77b4;stroke:#1f77b4;" x="717.35917" xlink:href="#m67293aa2aa" y="49.217143"/>
     <use style="fill:#1f77b4;stroke:#1f77b4;" x="719.676125" xlink:href="#m67293aa2aa" y="49.217143"/>
    </g>
   </g>
   <g id="patch_13">
    <path d="M 580.658824 189 
L 580.658824 25.92 
" style="fill:none;stroke:#000000;stroke-linecap:square;stroke-linejoin:miter;stroke-width:0.8;"/>
   </g>
   <g id="patch_14">
    <path d="M 777.6 189 
L 777.6 25.92 
" style="fill:none;stroke:#000000;stroke-linecap:square;stroke-linejoin:miter;stroke-width:0.8;"/>
   </g>
   <g id="patch_15">
    <path d="M 580.658824 189 
L 777.6 189 
" style="fill:none;stroke:#000000;stroke-linecap:square;stroke-linejoin:miter;stroke-width:0.8;"/>
   </g>
   <g id="patch_16">
    <path d="M 580.658824 25.92 
L 777.6 25.92 
" style="fill:none;stroke:#000000;stroke-linecap:square;stroke-linejoin:miter;stroke-width:0.8;"/>
   </g>
   <g id="text_40">
    <!-- Evaluation Partition -->
    <g transform="translate(620.560974 19.92)scale(0.12 -0.12)">
     <defs>
      <path d="M 9.8125 72.90625 
L 55.90625 72.90625 
L 55.90625 64.59375 
L 19.671875 64.59375 
L 19.671875 43.015625 
L 54.390625 43.015625 
L 54.390625 34.71875 
L 19.671875 34.71875 
L 19.671875 8.296875 
L 56.78125 8.296875 
L 56.78125 0 
L 9.8125 0 
z
" id="DejaVuSans-69"/>
     </defs>
     <use xlink:href="#DejaVuSans-69"/>
     <use x="63.183594" xlink:href="#DejaVuSans-118"/>
     <use x="122.363281" xlink:href="#DejaVuSans-97"/>
     <use x="183.642578" xlink:href="#DejaVuSans-108"/>
     <use x="211.425781" xlink:href="#DejaVuSans-117"/>
     <use x="274.804688" xlink:href="#DejaVuSans-97"/>
     <use x="336.083984" xlink:href="#DejaVuSans-116"/>
     <use x="375.292969" xlink:href="#DejaVuSans-105"/>
     <use x="403.076172" xlink:href="#DejaVuSans-111"/>
     <use x="464.257812" xlink:href="#DejaVuSans-110"/>
     <use x="527.636719" xlink:href="#DejaVuSans-32"/>
     <use x="559.423828" xlink:href="#DejaVuSans-80"/>
     <use x="615.226562" xlink:href="#DejaVuSans-97"/>
     <use x="676.505859" xlink:href="#DejaVuSans-114"/>
     <use x="717.619141" xlink:href="#DejaVuSans-116"/>
     <use x="756.828125" xlink:href="#DejaVuSans-105"/>
     <use x="784.611328" xlink:href="#DejaVuSans-116"/>
     <use x="823.820312" xlink:href="#DejaVuSans-105"/>
     <use x="851.603516" xlink:href="#DejaVuSans-111"/>
     <use x="912.785156" xlink:href="#DejaVuSans-110"/>
    </g>
   </g>
  </g>
 </g>
 <defs>
  <clipPath id="p21b379b0b2">
   <rect height="163.08" width="196.941176" x="108" y="25.92"/>
  </clipPath>
  <clipPath id="p4d31ec418f">
   <rect height="163.08" width="196.941176" x="344.329412" y="25.92"/>
  </clipPath>
  <clipPath id="p73687da7c6">
   <rect height="163.08" width="196.941176" x="580.658824" y="25.92"/>
  </clipPath>
 </defs>
</svg>
